<svg width="31" height="32" viewBox="0 0 31 32" fill="none" xmlns="http://www.w3.org/2000/svg">
<path d="M15.1571 3.4873C12.6719 3.4873 10.2425 4.22425 8.17614 5.60496C6.10976 6.98567 4.49922 8.94812 3.54817 11.2442C2.59712 13.5402 2.34828 16.0667 2.83312 18.5041C3.31796 20.9416 4.5147 23.1805 6.27201 24.9379C8.02932 26.6952 10.2683 27.8919 12.7057 28.3767C15.1432 28.8616 17.6697 28.6127 19.9657 27.6617C22.2617 26.7106 24.2242 25.1001 25.6049 23.0337C26.9856 20.9674 27.7226 18.538 27.7226 16.0527C27.7226 14.4026 27.3975 12.7687 26.7661 11.2442C26.1346 9.71965 25.209 8.33445 24.0422 7.16764C22.8754 6.00083 21.4902 5.07526 19.9657 4.44379C18.4412 3.81232 16.8072 3.4873 15.1571 3.4873ZM15.1571 26.1051C13.169 26.1051 11.2254 25.5155 9.57233 24.411C7.91923 23.3064 6.6308 21.7364 5.86996 19.8996C5.10912 18.0628 4.91005 16.0416 5.29792 14.0916C5.68579 12.1417 6.64319 10.3505 8.04903 8.94466C9.45488 7.53881 11.246 6.58142 13.196 6.19355C15.146 5.80567 17.1672 6.00474 19.004 6.76558C20.8408 7.52642 22.4108 8.81486 23.5153 10.468C24.6199 12.1211 25.2095 14.0646 25.2095 16.0527C25.2095 18.7188 24.1504 21.2757 22.2652 23.1608C20.38 25.046 17.8232 26.1051 15.1571 26.1051Z" fill="black"/>
<path d="M20.1833 14.7966H16.4137V11.0267C16.4137 10.6934 16.2813 10.3738 16.0457 10.1381C15.81 9.90242 15.4904 9.77002 15.1572 9.77002C14.8239 9.77002 14.5043 9.90242 14.2687 10.1381C14.033 10.3738 13.9006 10.6934 13.9006 11.0267V16.0533C13.9006 16.3865 14.033 16.7062 14.2687 16.9418C14.5043 17.1775 14.8239 17.3099 15.1572 17.3099H20.1833C20.5166 17.3099 20.8362 17.1775 21.0719 16.9418C21.3075 16.7062 21.4399 16.3865 21.4399 16.0533C21.4399 15.72 21.3075 15.4003 21.0719 15.1647C20.8362 14.929 20.5166 14.7966 20.1833 14.7966Z" fill="black"/>
</svg>
