<svg width="1914" height="92" viewBox="0 0 1914 92" fill="none" xmlns="http://www.w3.org/2000/svg">
<path d="M319.445 0H0.282715V91.7897H319.445V0Z" fill="#E4A92E"/>
<path d="M34.0828 59.2102V57.9262L46.9272 37.965H34.7067V33.0332H55.1043V34.3172L42.2418 54.2844H55.6622V59.2102H34.0828Z" fill="black"/>
<path d="M61.2954 33.0332H80.9251V37.923H66.8028V43.5568H79.1853V48.4406H66.8028V54.3264H81.0931V59.2102H61.2954V33.0332Z" fill="black"/>
<path d="M92.4438 59.2102H86.8884V33.0332H97.5372C104.136 33.0332 107.106 36.1831 107.106 41.0309C107.106 43.9288 106.068 46.7427 103.087 48.3626L109.05 59.2102H102.871L97.8251 49.7966C97.2852 49.8386 96.7513 49.8386 96.1693 49.8386C94.9237 49.8294 93.6798 49.7472 92.4438 49.5926V59.2102ZM92.4438 44.7567C93.6989 45.0067 94.9738 45.1452 96.2533 45.1707C98.905 45.1707 101.431 44.3848 101.431 41.2769C101.431 38.913 99.6309 37.839 96.5833 37.839H92.4438V44.7567Z" fill="black"/>
<path d="M113.441 46.2406C113.519 38.1236 119.111 32.5742 127.354 32.5742C135.597 32.5742 141.152 38.1236 141.23 46.2406C141.146 54.3216 135.681 59.955 127.354 59.955C119.027 59.955 113.519 54.3216 113.441 46.2406ZM135.393 46.2406C135.393 40.9852 131.955 37.7096 127.354 37.7096C122.752 37.7096 119.363 40.9852 119.363 46.2406C119.363 51.496 122.758 54.7356 127.354 54.7356C131.949 54.7356 135.393 51.502 135.393 46.2406Z" fill="black"/>
<path d="M169.601 59.2132H163.751V31.833H174.55C182.607 31.833 185.601 36.2544 185.601 41.5396C185.601 48.7386 180.052 51.3723 174.376 51.3723C172.78 51.395 171.184 51.2644 169.613 50.9823L169.601 59.2132ZM169.601 46.171C170.905 46.3661 172.223 46.4544 173.542 46.435C176.92 46.435 179.476 45.0911 179.476 41.4077C179.476 38.942 178.396 36.9443 174.196 36.9443H169.601V46.171Z" fill="black"/>
<path d="M192.338 31.833H198.187V59.2132H192.338V31.833Z" fill="black"/>
<path d="M204.51 59.2132V57.8694L217.943 36.9923H205.164V31.833H226.456V33.1768L213.047 54.0599H227.056V59.2132H204.51Z" fill="black"/>
<path d="M231.927 59.2132V57.8694L245.36 36.9923H232.581V31.833H253.891V33.1768L240.464 54.0599H254.497V59.2132H231.927Z" fill="black"/>
<path d="M256.662 59.2125H285.645L283.035 54.0605H259.206L256.662 59.2125Z" fill="black"/>
<path d="M282.087 52.104L271.829 31.833H270.221L260.22 52.104H282.087Z" fill="black"/>
<path d="M271.817 35.2815C271.888 35.363 271.941 35.4581 271.973 35.561C272.006 35.6639 272.018 35.7724 272.007 35.8798C271.996 35.9872 271.964 36.0913 271.911 36.1857C271.859 36.2801 271.788 36.3629 271.703 36.4289C271.525 36.5639 271.304 36.6276 271.082 36.6076C270.86 36.5876 270.654 36.4853 270.503 36.3207C270.432 36.2396 270.377 36.1446 270.344 36.0416C270.311 35.9386 270.3 35.8299 270.31 35.7222C270.321 35.6145 270.354 35.5102 270.406 35.4157C270.459 35.3213 270.531 35.2388 270.617 35.1734C270.795 35.041 271.016 34.9788 271.237 34.9988C271.459 35.0187 271.665 35.1193 271.817 35.2815Z" fill="#E4A92E"/>
<path d="M266.052 47.011C265.958 46.8922 265.89 46.7554 265.852 46.6091C265.814 46.4629 265.807 46.3104 265.831 46.1612C265.854 46.0119 265.909 45.8692 265.99 45.7419C266.071 45.6146 266.178 45.5054 266.304 45.4212C266.562 45.2421 266.879 45.1673 267.19 45.2118C267.502 45.2563 267.785 45.4168 267.983 45.6612C268.076 45.7804 268.143 45.9172 268.18 46.0633C268.218 46.2094 268.225 46.3617 268.201 46.5106C268.178 46.6596 268.124 46.8022 268.043 46.9295C267.962 47.0568 267.856 47.1663 267.731 47.251C267.473 47.4302 267.156 47.505 266.844 47.4605C266.533 47.416 266.25 47.2555 266.052 47.011Z" fill="#E4A92E"/>
<path d="M266.651 46.5907C266.616 46.5459 266.59 46.4942 266.576 46.439C266.562 46.3838 266.559 46.3263 266.568 46.27C266.577 46.2137 266.598 46.1599 266.629 46.1119C266.659 46.0639 266.7 46.0228 266.747 45.9912C266.845 45.9222 266.965 45.8932 267.083 45.9099C267.201 45.9266 267.309 45.9879 267.383 46.0811C267.418 46.126 267.444 46.1776 267.458 46.2328C267.473 46.288 267.475 46.3455 267.466 46.4018C267.457 46.4581 267.437 46.512 267.406 46.5599C267.375 46.6079 267.335 46.649 267.287 46.6807C267.189 46.7468 267.069 46.7743 266.952 46.7577C266.835 46.7411 266.727 46.6816 266.651 46.5907Z" fill="#E4A92E"/>
<path d="M267.557 49.791C267.401 49.7701 267.259 49.6886 267.163 49.5642C267.066 49.4398 267.023 49.2825 267.041 49.1262C267.054 49.0476 267.083 48.9724 267.125 48.9049C267.168 48.8375 267.224 48.7792 267.289 48.7335C267.354 48.6877 267.428 48.6555 267.506 48.6386C267.584 48.6217 267.665 48.6205 267.743 48.6352C267.9 48.6561 268.041 48.7375 268.138 48.8619C268.234 48.9863 268.278 49.1437 268.259 49.2999C268.246 49.3785 268.218 49.4538 268.175 49.5212C268.133 49.5887 268.077 49.647 268.012 49.6927C267.946 49.7384 267.872 49.7707 267.794 49.7876C267.716 49.8045 267.636 49.8056 267.557 49.791Z" fill="#E4A92E"/>
<path d="M277.792 50.5033C277.637 50.4824 277.496 50.4016 277.4 50.2784C277.303 50.1552 277.259 49.9992 277.276 49.8437C277.289 49.765 277.318 49.6896 277.36 49.6221C277.403 49.5546 277.458 49.4962 277.524 49.4504C277.589 49.4046 277.663 49.3723 277.741 49.3554C277.819 49.3385 277.899 49.3373 277.978 49.352C278.134 49.3729 278.276 49.4545 278.372 49.579C278.469 49.7036 278.513 49.8611 278.494 50.0176C278.48 50.0958 278.451 50.1705 278.408 50.2373C278.365 50.3042 278.31 50.3619 278.244 50.407C278.179 50.4522 278.106 50.484 278.028 50.5005C277.95 50.5171 277.87 50.518 277.792 50.5033Z" fill="#E4A92E"/>
<path d="M269.207 40.4554C269.081 40.4413 268.959 40.4022 268.848 40.3403C268.737 40.2783 268.64 40.1949 268.561 40.0948C268.483 39.9948 268.426 39.8801 268.392 39.7575C268.359 39.6349 268.35 39.5069 268.367 39.3809C268.417 39.1261 268.563 38.9004 268.776 38.7515C268.989 38.6026 269.251 38.5421 269.507 38.5826C269.633 38.5982 269.755 38.6385 269.865 38.7014C269.975 38.7642 270.072 38.8483 270.149 38.9488C270.227 39.0493 270.284 39.1641 270.317 39.2867C270.35 39.4093 270.358 39.5372 270.341 39.6631C270.293 39.9171 270.147 40.1421 269.935 40.2902C269.723 40.4382 269.462 40.4975 269.207 40.4554Z" fill="#E4A92E"/>
<path d="M270.059 44.0283C269.978 44.0203 269.899 43.9958 269.827 43.9563C269.756 43.9168 269.693 43.8631 269.643 43.7985C269.593 43.7339 269.557 43.6599 269.537 43.5808C269.516 43.5017 269.512 43.4193 269.525 43.3386C269.536 43.2564 269.565 43.1773 269.608 43.1065C269.651 43.0357 269.709 42.9747 269.777 42.9274C269.846 42.88 269.923 42.8474 270.004 42.8314C270.086 42.8155 270.17 42.8167 270.251 42.8349C270.332 42.843 270.41 42.8673 270.481 42.9064C270.552 42.9456 270.614 42.9987 270.664 43.0626C270.714 43.1265 270.751 43.1998 270.771 43.2782C270.792 43.3566 270.797 43.4383 270.785 43.5186C270.754 43.6813 270.661 43.8256 270.526 43.9208C270.39 44.016 270.223 44.0546 270.059 44.0283Z" fill="#E4A92E"/>
<path d="M274.036 48.6599V48.5819C274.036 47.7045 273.325 46.9932 272.447 46.9932H272.189C271.311 46.9932 270.599 47.7045 270.599 48.5819V48.6599C270.599 49.5373 271.311 50.2486 272.189 50.2486H272.447C273.325 50.2486 274.036 49.5373 274.036 48.6599Z" fill="#E4A92E"/>
<path d="M273.91 43.1221H273.73C273.117 43.1221 272.621 43.6191 272.621 44.2323V44.2863C272.621 44.8994 273.117 45.3965 273.73 45.3965H273.91C274.523 45.3965 275.02 44.8994 275.02 44.2863V44.2323C275.02 43.6191 274.523 43.1221 273.91 43.1221Z" fill="#E4A92E"/>
<path d="M267.857 41.8809H267.221V42.4803H267.857V41.8809Z" fill="#E4A92E"/>
<path d="M275.92 47.5674H275.284V48.1662H275.92V47.5674Z" fill="#E4A92E"/>
<path d="M273.19 39.9072H272.554V40.5097H273.19V39.9072Z" fill="#E4A92E"/>
<path d="M264.444 48.8701H263.808V49.4696H264.444V48.8701Z" fill="#E4A92E"/>
<path d="M638.607 0H319.445V91.7897H638.607V0Z" fill="#E4A92E"/>
<path d="M353.245 59.2102V57.9262L366.09 37.965H353.869V33.0332H374.267V34.3172L361.404 54.2844H374.825V59.2102H353.245Z" fill="black"/>
<path d="M380.458 33.0332H400.087V37.923H385.965V43.5568H398.348V48.4406H385.965V54.3264H400.255V59.2102H380.458V33.0332Z" fill="black"/>
<path d="M411.606 59.2102H406.051V33.0332H416.7C423.299 33.0332 426.268 36.1831 426.268 41.0309C426.268 43.9288 425.23 46.7427 422.249 48.3626L428.212 59.2102H422.033L416.987 49.7966C416.448 49.8386 415.914 49.8386 415.332 49.8386C414.086 49.8294 412.842 49.7472 411.606 49.5926V59.2102ZM411.606 44.7567C412.861 45.0067 414.136 45.1452 415.416 45.1707C418.067 45.1707 420.593 44.3848 420.593 41.2769C420.593 38.913 418.793 37.839 415.746 37.839H411.606V44.7567Z" fill="black"/>
<path d="M432.604 46.2406C432.682 38.1236 438.273 32.5742 446.516 32.5742C454.759 32.5742 460.315 38.1236 460.392 46.2406C460.309 54.3216 454.843 59.955 446.516 59.955C438.189 59.955 432.682 54.3216 432.604 46.2406ZM454.555 46.2406C454.555 40.9852 451.118 37.7096 446.516 37.7096C441.915 37.7096 438.525 40.9852 438.525 46.2406C438.525 51.496 441.921 54.7356 446.516 54.7356C451.112 54.7356 454.555 51.502 454.555 46.2406Z" fill="black"/>
<path d="M488.763 59.2132H482.914V31.833H493.712C501.769 31.833 504.763 36.2544 504.763 41.5396C504.763 48.7386 499.214 51.3723 493.538 51.3723C491.942 51.395 490.347 51.2644 488.775 50.9823L488.763 59.2132ZM488.763 46.171C490.067 46.3661 491.386 46.4544 492.704 46.435C496.082 46.435 498.638 45.0911 498.638 41.4077C498.638 38.942 497.558 36.9443 493.358 36.9443H488.763V46.171Z" fill="black"/>
<path d="M511.5 31.833H517.349V59.2132H511.5V31.833Z" fill="black"/>
<path d="M523.673 59.2132V57.8694L537.105 36.9923H524.327V31.833H545.618V33.1768L532.21 54.0599H546.218V59.2132H523.673Z" fill="black"/>
<path d="M551.09 59.2132V57.8694L564.522 36.9923H551.744V31.833H573.053V33.1768L559.627 54.0599H573.659V59.2132H551.09Z" fill="black"/>
<path d="M575.825 59.2125H604.807L602.198 54.0605H578.368L575.825 59.2125Z" fill="black"/>
<path d="M601.25 52.104L590.991 31.833H589.383L579.382 52.104H601.25Z" fill="black"/>
<path d="M590.979 35.2815C591.05 35.363 591.103 35.4581 591.136 35.561C591.168 35.6639 591.18 35.7724 591.169 35.8798C591.158 35.9872 591.126 36.0913 591.074 36.1857C591.021 36.2801 590.95 36.3629 590.865 36.4289C590.688 36.5639 590.466 36.6276 590.244 36.6076C590.022 36.5876 589.816 36.4853 589.665 36.3207C589.594 36.2396 589.54 36.1446 589.506 36.0416C589.473 35.9386 589.462 35.8299 589.472 35.7222C589.483 35.6145 589.516 35.5102 589.569 35.4157C589.621 35.3213 589.693 35.2388 589.779 35.1734C589.958 35.041 590.178 34.9788 590.4 34.9988C590.621 35.0187 590.827 35.1193 590.979 35.2815Z" fill="#E4A92E"/>
<path d="M585.214 47.011C585.12 46.8922 585.053 46.7554 585.015 46.6091C584.977 46.4629 584.969 46.3104 584.993 46.1612C585.016 46.0119 585.071 45.8692 585.152 45.7419C585.233 45.6146 585.34 45.5054 585.466 45.4212C585.724 45.2421 586.041 45.1673 586.353 45.2118C586.664 45.2563 586.947 45.4168 587.145 45.6612C587.238 45.7804 587.305 45.9172 587.342 46.0633C587.38 46.2094 587.387 46.3617 587.364 46.5106C587.34 46.6596 587.286 46.8022 587.205 46.9295C587.124 47.0568 587.018 47.1663 586.893 47.251C586.635 47.4302 586.318 47.505 586.006 47.4605C585.695 47.416 585.412 47.2555 585.214 47.011Z" fill="#E4A92E"/>
<path d="M585.813 46.5907C585.778 46.5459 585.753 46.4942 585.738 46.439C585.724 46.3838 585.721 46.3263 585.73 46.27C585.739 46.2137 585.76 46.1599 585.791 46.1119C585.821 46.0639 585.862 46.0228 585.909 45.9912C586.007 45.9222 586.127 45.8932 586.245 45.9099C586.363 45.9266 586.471 45.9879 586.545 46.0811C586.581 46.126 586.606 46.1776 586.62 46.2328C586.635 46.288 586.637 46.3455 586.628 46.4018C586.619 46.4581 586.599 46.512 586.568 46.5599C586.537 46.6079 586.497 46.649 586.449 46.6807C586.351 46.7468 586.231 46.7743 586.114 46.7577C585.997 46.7411 585.89 46.6816 585.813 46.5907Z" fill="#E4A92E"/>
<path d="M586.719 49.791C586.563 49.7701 586.421 49.6886 586.325 49.5642C586.228 49.4398 586.185 49.2825 586.203 49.1262C586.216 49.0476 586.245 48.9724 586.288 48.9049C586.33 48.8375 586.386 48.7792 586.451 48.7335C586.516 48.6877 586.59 48.6555 586.668 48.6386C586.746 48.6217 586.827 48.6205 586.905 48.6352C587.062 48.6561 587.203 48.7375 587.3 48.8619C587.396 48.9863 587.44 49.1437 587.421 49.2999C587.408 49.3785 587.38 49.4538 587.337 49.5212C587.295 49.5887 587.239 49.647 587.174 49.6927C587.108 49.7384 587.035 49.7707 586.957 49.7876C586.879 49.8045 586.798 49.8056 586.719 49.791Z" fill="#E4A92E"/>
<path d="M596.954 50.5033C596.799 50.4824 596.658 50.4016 596.562 50.2784C596.465 50.1552 596.421 49.9992 596.438 49.8437C596.451 49.765 596.48 49.6896 596.522 49.6221C596.565 49.5546 596.62 49.4962 596.686 49.4504C596.751 49.4046 596.825 49.3723 596.903 49.3554C596.981 49.3385 597.062 49.3373 597.14 49.352C597.296 49.3729 597.438 49.4545 597.535 49.579C597.631 49.7036 597.675 49.8611 597.656 50.0176C597.642 50.0958 597.613 50.1705 597.57 50.2373C597.528 50.3042 597.472 50.3619 597.407 50.407C597.341 50.4522 597.268 50.484 597.19 50.5005C597.112 50.5171 597.032 50.518 596.954 50.5033Z" fill="#E4A92E"/>
<path d="M588.369 40.4554C588.243 40.4413 588.121 40.4022 588.01 40.3403C587.899 40.2783 587.802 40.1949 587.724 40.0948C587.645 39.9948 587.588 39.8801 587.554 39.7575C587.521 39.6349 587.513 39.5069 587.529 39.3809C587.579 39.1261 587.726 38.9004 587.938 38.7515C588.151 38.6026 588.413 38.5421 588.669 38.5826C588.795 38.5982 588.917 38.6385 589.027 38.7014C589.137 38.7642 589.234 38.8483 589.311 38.9488C589.389 39.0493 589.446 39.1641 589.479 39.2867C589.512 39.4093 589.52 39.5372 589.503 39.6631C589.455 39.9171 589.309 40.1421 589.097 40.2902C588.886 40.4382 588.624 40.4975 588.369 40.4554Z" fill="#E4A92E"/>
<path d="M589.221 44.0283C589.14 44.0203 589.061 43.9958 588.99 43.9563C588.918 43.9168 588.855 43.8631 588.805 43.7985C588.755 43.7339 588.719 43.6599 588.699 43.5808C588.678 43.5017 588.675 43.4193 588.687 43.3386C588.698 43.2564 588.727 43.1773 588.77 43.1065C588.814 43.0357 588.871 42.9747 588.939 42.9274C589.008 42.88 589.085 42.8474 589.167 42.8314C589.248 42.8155 589.332 42.8167 589.413 42.8349C589.494 42.843 589.572 42.8673 589.643 42.9064C589.714 42.9456 589.776 42.9987 589.826 43.0626C589.876 43.1265 589.913 43.1998 589.933 43.2782C589.954 43.3566 589.959 43.4383 589.947 43.5186C589.916 43.6813 589.823 43.8256 589.688 43.9208C589.552 44.016 589.385 44.0546 589.221 44.0283Z" fill="#E4A92E"/>
<path d="M593.199 48.6599V48.5819C593.199 47.7045 592.487 46.9932 591.609 46.9932H591.351C590.473 46.9932 589.761 47.7045 589.761 48.5819V48.6599C589.761 49.5373 590.473 50.2486 591.351 50.2486H591.609C592.487 50.2486 593.199 49.5373 593.199 48.6599Z" fill="#E4A92E"/>
<path d="M593.073 43.1221H592.893C592.28 43.1221 591.783 43.6191 591.783 44.2323V44.2863C591.783 44.8994 592.28 45.3965 592.893 45.3965H593.073C593.686 45.3965 594.183 44.8994 594.183 44.2863V44.2323C594.183 43.6191 593.686 43.1221 593.073 43.1221Z" fill="#E4A92E"/>
<path d="M587.019 41.8809H586.383V42.4803H587.019V41.8809Z" fill="#E4A92E"/>
<path d="M595.083 47.5674H594.447V48.1662H595.083V47.5674Z" fill="#E4A92E"/>
<path d="M592.353 39.9072H591.717V40.5097H592.353V39.9072Z" fill="#E4A92E"/>
<path d="M583.606 48.8701H582.97V49.4696H583.606V48.8701Z" fill="#E4A92E"/>
<path d="M957.77 0H638.607V91.7897H957.77V0Z" fill="#E4A92E"/>
<path d="M672.407 59.2102V57.9262L685.252 37.965H673.031V33.0332H693.429V34.3172L680.566 54.2844H693.987V59.2102H672.407Z" fill="black"/>
<path d="M699.62 33.0332H719.25V37.923H705.127V43.5568H717.51V48.4406H705.127V54.3264H719.418V59.2102H699.62V33.0332Z" fill="black"/>
<path d="M730.768 59.2102H725.213V33.0332H735.862C742.461 33.0332 745.431 36.1831 745.431 41.0309C745.431 43.9288 744.393 46.7427 741.411 48.3626L747.374 59.2102H741.195L736.15 49.7966C735.61 49.8386 735.076 49.8386 734.494 49.8386C733.248 49.8294 732.004 49.7472 730.768 49.5926V59.2102ZM730.768 44.7567C732.023 45.0067 733.298 45.1452 734.578 45.1707C737.229 45.1707 739.755 44.3848 739.755 41.2769C739.755 38.913 737.955 37.839 734.908 37.839H730.768V44.7567Z" fill="black"/>
<path d="M751.766 46.2406C751.844 38.1236 757.435 32.5742 765.678 32.5742C773.921 32.5742 779.477 38.1236 779.555 46.2406C779.471 54.3216 774.005 59.955 765.678 59.955C757.351 59.955 751.844 54.3216 751.766 46.2406ZM773.717 46.2406C773.717 40.9852 770.28 37.7096 765.678 37.7096C761.077 37.7096 757.687 40.9852 757.687 46.2406C757.687 51.496 761.083 54.7356 765.678 54.7356C770.274 54.7356 773.717 51.502 773.717 46.2406Z" fill="black"/>
<path d="M807.925 59.2132H802.076V31.833H812.875C820.932 31.833 823.925 36.2544 823.925 41.5396C823.925 48.7386 818.376 51.3723 812.701 51.3723C811.104 51.395 809.509 51.2644 807.937 50.9823L807.925 59.2132ZM807.925 46.171C809.23 46.3661 810.548 46.4544 811.867 46.435C815.244 46.435 817.8 45.0911 817.8 41.4077C817.8 38.942 816.72 36.9443 812.521 36.9443H807.925V46.171Z" fill="black"/>
<path d="M830.663 31.833H836.512V59.2132H830.663V31.833Z" fill="black"/>
<path d="M842.835 59.2132V57.8694L856.268 36.9923H843.489V31.833H864.781V33.1768L851.372 54.0599H865.381V59.2132H842.835Z" fill="black"/>
<path d="M870.252 59.2132V57.8694L883.684 36.9923H870.906V31.833H892.215V33.1768L878.789 54.0599H892.821V59.2132H870.252Z" fill="black"/>
<path d="M894.987 59.2125H923.97L921.36 54.0605H897.531L894.987 59.2125Z" fill="black"/>
<path d="M920.412 52.104L910.153 31.833H908.545L898.544 52.104H920.412Z" fill="black"/>
<path d="M910.141 35.2815C910.212 35.363 910.265 35.4581 910.298 35.561C910.33 35.6639 910.342 35.7724 910.331 35.8798C910.32 35.9872 910.288 36.0913 910.236 36.1857C910.183 36.2801 910.112 36.3629 910.027 36.4289C909.85 36.5639 909.628 36.6276 909.406 36.6076C909.184 36.5876 908.978 36.4853 908.827 36.3207C908.756 36.2396 908.702 36.1446 908.669 36.0416C908.635 35.9386 908.624 35.8299 908.634 35.7222C908.645 35.6145 908.678 35.5102 908.731 35.4157C908.783 35.3213 908.855 35.2388 908.941 35.1734C909.12 35.041 909.34 34.9788 909.562 34.9988C909.783 35.0187 909.989 35.1193 910.141 35.2815Z" fill="#E4A92E"/>
<path d="M904.376 47.011C904.283 46.8922 904.215 46.7554 904.177 46.6091C904.139 46.4629 904.131 46.3104 904.155 46.1612C904.179 46.0119 904.233 45.8692 904.314 45.7419C904.396 45.6146 904.502 45.5054 904.628 45.4212C904.887 45.2421 905.203 45.1673 905.515 45.2118C905.826 45.2563 906.11 45.4168 906.308 45.6612C906.4 45.7804 906.467 45.9172 906.505 46.0633C906.542 46.2094 906.549 46.3617 906.526 46.5106C906.502 46.6596 906.448 46.8022 906.367 46.9295C906.287 47.0568 906.181 47.1663 906.056 47.251C905.797 47.4302 905.48 47.505 905.169 47.4605C904.857 47.416 904.574 47.2555 904.376 47.011Z" fill="#E4A92E"/>
<path d="M904.976 46.5907C904.941 46.5459 904.915 46.4942 904.901 46.439C904.887 46.3838 904.884 46.3263 904.893 46.27C904.902 46.2137 904.922 46.1599 904.953 46.1119C904.984 46.0639 905.025 46.0228 905.072 45.9912C905.169 45.9222 905.29 45.8932 905.408 45.9099C905.526 45.9266 905.633 45.9879 905.708 46.0811C905.743 46.126 905.769 46.1776 905.783 46.2328C905.797 46.288 905.8 46.3455 905.791 46.4018C905.782 46.4581 905.761 46.512 905.731 46.5599C905.7 46.6079 905.659 46.649 905.612 46.6807C905.513 46.7468 905.394 46.7743 905.277 46.7577C905.159 46.7411 905.052 46.6816 904.976 46.5907Z" fill="#E4A92E"/>
<path d="M905.882 49.791C905.726 49.7701 905.584 49.6886 905.487 49.5642C905.391 49.4398 905.347 49.2825 905.366 49.1262C905.379 49.0476 905.407 48.9724 905.45 48.9049C905.492 48.8375 905.548 48.7792 905.613 48.7335C905.679 48.6877 905.753 48.6555 905.831 48.6386C905.909 48.6217 905.989 48.6205 906.068 48.6352C906.224 48.6561 906.366 48.7375 906.462 48.8619C906.559 48.9863 906.602 49.1437 906.584 49.2999C906.571 49.3785 906.542 49.4538 906.5 49.5212C906.457 49.5887 906.401 49.647 906.336 49.6927C906.271 49.7384 906.197 49.7707 906.119 49.7876C906.041 49.8045 905.96 49.8056 905.882 49.791Z" fill="#E4A92E"/>
<path d="M916.117 50.5033C915.962 50.4824 915.821 50.4016 915.724 50.2784C915.628 50.1552 915.584 49.9992 915.601 49.8437C915.614 49.765 915.642 49.6896 915.685 49.6221C915.727 49.5546 915.783 49.4962 915.848 49.4504C915.914 49.4046 915.988 49.3723 916.066 49.3554C916.144 49.3385 916.224 49.3373 916.303 49.352C916.459 49.3729 916.601 49.4545 916.697 49.579C916.794 49.7036 916.837 49.8611 916.819 50.0176C916.805 50.0958 916.776 50.1705 916.733 50.2373C916.69 50.3042 916.635 50.3619 916.569 50.407C916.504 50.4522 916.43 50.484 916.353 50.5005C916.275 50.5171 916.195 50.518 916.117 50.5033Z" fill="#E4A92E"/>
<path d="M907.531 40.4554C907.405 40.4413 907.283 40.4022 907.172 40.3403C907.061 40.2783 906.964 40.1949 906.886 40.0948C906.807 39.9948 906.75 39.8801 906.717 39.7575C906.683 39.6349 906.675 39.5069 906.691 39.3809C906.741 39.1261 906.888 38.9004 907.1 38.7515C907.313 38.6026 907.575 38.5421 907.831 38.5826C907.957 38.5982 908.079 38.6385 908.189 38.7014C908.299 38.7642 908.396 38.8483 908.474 38.9488C908.551 39.0493 908.608 39.1641 908.641 39.2867C908.674 39.4093 908.682 39.5372 908.665 39.6631C908.617 39.9171 908.471 40.1421 908.26 40.2902C908.048 40.4382 907.786 40.4975 907.531 40.4554Z" fill="#E4A92E"/>
<path d="M908.383 44.0283C908.302 44.0203 908.223 43.9958 908.152 43.9563C908.08 43.9168 908.018 43.8631 907.968 43.7985C907.918 43.7339 907.881 43.6599 907.861 43.5808C907.841 43.5017 907.837 43.4193 907.85 43.3386C907.861 43.2564 907.889 43.1773 907.932 43.1065C907.976 43.0357 908.034 42.9747 908.102 42.9274C908.17 42.88 908.247 42.8474 908.329 42.8314C908.41 42.8155 908.494 42.8167 908.575 42.8349C908.656 42.843 908.734 42.8673 908.805 42.9064C908.876 42.9456 908.939 42.9987 908.989 43.0626C909.039 43.1265 909.075 43.1998 909.096 43.2782C909.116 43.3566 909.121 43.4383 909.109 43.5186C909.079 43.6813 908.986 43.8256 908.85 43.9208C908.714 44.016 908.547 44.0546 908.383 44.0283Z" fill="#E4A92E"/>
<path d="M912.361 48.6599V48.5819C912.361 47.7045 911.649 46.9932 910.771 46.9932H910.513C909.635 46.9932 908.923 47.7045 908.923 48.5819V48.6599C908.923 49.5373 909.635 50.2486 910.513 50.2486H910.771C911.649 50.2486 912.361 49.5373 912.361 48.6599Z" fill="#E4A92E"/>
<path d="M912.235 43.1221H912.055C911.442 43.1221 910.945 43.6191 910.945 44.2323V44.2863C910.945 44.8994 911.442 45.3965 912.055 45.3965H912.235C912.848 45.3965 913.345 44.8994 913.345 44.2863V44.2323C913.345 43.6191 912.848 43.1221 912.235 43.1221Z" fill="#E4A92E"/>
<path d="M906.182 41.8809H905.546V42.4803H906.182V41.8809Z" fill="#E4A92E"/>
<path d="M914.245 47.5674H913.609V48.1662H914.245V47.5674Z" fill="#E4A92E"/>
<path d="M911.515 39.9072H910.879V40.5097H911.515V39.9072Z" fill="#E4A92E"/>
<path d="M902.768 48.8701H902.132V49.4696H902.768V48.8701Z" fill="#E4A92E"/>
<path d="M1276.93 0H957.77V91.7897H1276.93V0Z" fill="#E4A92E"/>
<path d="M991.57 59.2102V57.9262L1004.41 37.965H992.194V33.0332H1012.59V34.3172L999.729 54.2844H1013.15V59.2102H991.57Z" fill="black"/>
<path d="M1018.78 33.0332H1038.41V37.923H1024.29V43.5568H1036.67V48.4406H1024.29V54.3264H1038.58V59.2102H1018.78V33.0332Z" fill="black"/>
<path d="M1049.93 59.2102H1044.38V33.0332H1055.02C1061.62 33.0332 1064.59 36.1831 1064.59 41.0309C1064.59 43.9288 1063.56 46.7427 1060.57 48.3626L1066.54 59.2102H1060.36L1055.31 49.7966C1054.77 49.8386 1054.24 49.8386 1053.66 49.8386C1052.41 49.8294 1051.17 49.7472 1049.93 49.5926V59.2102ZM1049.93 44.7567C1051.19 45.0067 1052.46 45.1452 1053.74 45.1707C1056.39 45.1707 1058.92 44.3848 1058.92 41.2769C1058.92 38.913 1057.12 37.839 1054.07 37.839H1049.93V44.7567Z" fill="black"/>
<path d="M1070.93 46.2406C1071.01 38.1236 1076.6 32.5742 1084.84 32.5742C1093.08 32.5742 1098.64 38.1236 1098.72 46.2406C1098.63 54.3216 1093.17 59.955 1084.84 59.955C1076.51 59.955 1071.01 54.3216 1070.93 46.2406ZM1092.88 46.2406C1092.88 40.9852 1089.44 37.7096 1084.84 37.7096C1080.24 37.7096 1076.85 40.9852 1076.85 46.2406C1076.85 51.496 1080.25 54.7356 1084.84 54.7356C1089.44 54.7356 1092.88 51.502 1092.88 46.2406Z" fill="black"/>
<path d="M1127.09 59.2132H1121.24V31.833H1132.04C1140.09 31.833 1143.09 36.2544 1143.09 41.5396C1143.09 48.7386 1137.54 51.3723 1131.86 51.3723C1130.27 51.395 1128.67 51.2644 1127.1 50.9823L1127.09 59.2132ZM1127.09 46.171C1128.39 46.3661 1129.71 46.4544 1131.03 46.435C1134.41 46.435 1136.96 45.0911 1136.96 41.4077C1136.96 38.942 1135.88 36.9443 1131.68 36.9443H1127.09V46.171Z" fill="black"/>
<path d="M1149.82 31.833H1155.67V59.2132H1149.82V31.833Z" fill="black"/>
<path d="M1162 59.2132V57.8694L1175.43 36.9923H1162.65V31.833H1183.94V33.1768L1170.53 54.0599H1184.54V59.2132H1162Z" fill="black"/>
<path d="M1189.41 59.2132V57.8694L1202.85 36.9923H1190.07V31.833H1211.38V33.1768L1197.95 54.0599H1211.98V59.2132H1189.41Z" fill="black"/>
<path d="M1214.15 59.2125H1243.13L1240.52 54.0605H1216.69L1214.15 59.2125Z" fill="black"/>
<path d="M1239.57 52.104L1229.32 31.833H1227.71L1217.71 52.104H1239.57Z" fill="black"/>
<path d="M1229.3 35.2815C1229.37 35.363 1229.43 35.4581 1229.46 35.561C1229.49 35.6639 1229.5 35.7724 1229.49 35.8798C1229.48 35.9872 1229.45 36.0913 1229.4 36.1857C1229.35 36.2801 1229.28 36.3629 1229.19 36.4289C1229.01 36.5639 1228.79 36.6276 1228.57 36.6076C1228.35 36.5876 1228.14 36.4853 1227.99 36.3207C1227.92 36.2396 1227.86 36.1446 1227.83 36.0416C1227.8 35.9386 1227.79 35.8299 1227.8 35.7222C1227.81 35.6145 1227.84 35.5102 1227.89 35.4157C1227.95 35.3213 1228.02 35.2388 1228.1 35.1734C1228.28 35.041 1228.5 34.9788 1228.72 34.9988C1228.95 35.0187 1229.15 35.1193 1229.3 35.2815Z" fill="#E4A92E"/>
<path d="M1223.54 47.011C1223.44 46.8922 1223.38 46.7554 1223.34 46.6091C1223.3 46.4629 1223.29 46.3104 1223.32 46.1612C1223.34 46.0119 1223.4 45.8692 1223.48 45.7419C1223.56 45.6146 1223.66 45.5054 1223.79 45.4212C1224.05 45.2421 1224.37 45.1673 1224.68 45.2118C1224.99 45.2563 1225.27 45.4168 1225.47 45.6612C1225.56 45.7804 1225.63 45.9172 1225.67 46.0633C1225.7 46.2094 1225.71 46.3617 1225.69 46.5106C1225.66 46.6596 1225.61 46.8022 1225.53 46.9295C1225.45 47.0568 1225.34 47.1663 1225.22 47.251C1224.96 47.4302 1224.64 47.505 1224.33 47.4605C1224.02 47.416 1223.74 47.2555 1223.54 47.011Z" fill="#E4A92E"/>
<path d="M1224.14 46.5907C1224.1 46.5459 1224.08 46.4942 1224.06 46.439C1224.05 46.3838 1224.05 46.3263 1224.06 46.27C1224.06 46.2137 1224.08 46.1599 1224.12 46.1119C1224.15 46.0639 1224.19 46.0228 1224.23 45.9912C1224.33 45.9222 1224.45 45.8932 1224.57 45.9099C1224.69 45.9266 1224.8 45.9879 1224.87 46.0811C1224.91 46.126 1224.93 46.1776 1224.95 46.2328C1224.96 46.288 1224.96 46.3455 1224.95 46.4018C1224.94 46.4581 1224.92 46.512 1224.89 46.5599C1224.86 46.6079 1224.82 46.649 1224.77 46.6807C1224.68 46.7468 1224.56 46.7743 1224.44 46.7577C1224.32 46.7411 1224.21 46.6816 1224.14 46.5907Z" fill="#E4A92E"/>
<path d="M1225.04 49.791C1224.89 49.7701 1224.75 49.6886 1224.65 49.5642C1224.55 49.4398 1224.51 49.2825 1224.53 49.1262C1224.54 49.0476 1224.57 48.9724 1224.61 48.9049C1224.65 48.8375 1224.71 48.7792 1224.78 48.7335C1224.84 48.6877 1224.92 48.6555 1224.99 48.6386C1225.07 48.6217 1225.15 48.6205 1225.23 48.6352C1225.39 48.6561 1225.53 48.7375 1225.62 48.8619C1225.72 48.9863 1225.76 49.1437 1225.75 49.2999C1225.73 49.3785 1225.7 49.4538 1225.66 49.5212C1225.62 49.5887 1225.56 49.647 1225.5 49.6927C1225.43 49.7384 1225.36 49.7707 1225.28 49.7876C1225.2 49.8045 1225.12 49.8056 1225.04 49.791Z" fill="#E4A92E"/>
<path d="M1235.28 50.5033C1235.12 50.4824 1234.98 50.4016 1234.89 50.2784C1234.79 50.1552 1234.75 49.9992 1234.76 49.8437C1234.78 49.765 1234.8 49.6896 1234.85 49.6221C1234.89 49.5546 1234.95 49.4962 1235.01 49.4504C1235.08 49.4046 1235.15 49.3723 1235.23 49.3554C1235.31 49.3385 1235.39 49.3373 1235.46 49.352C1235.62 49.3729 1235.76 49.4545 1235.86 49.579C1235.96 49.7036 1236 49.8611 1235.98 50.0176C1235.97 50.0958 1235.94 50.1705 1235.9 50.2373C1235.85 50.3042 1235.8 50.3619 1235.73 50.407C1235.67 50.4522 1235.59 50.484 1235.51 50.5005C1235.44 50.5171 1235.36 50.518 1235.28 50.5033Z" fill="#E4A92E"/>
<path d="M1226.69 40.4554C1226.57 40.4413 1226.45 40.4022 1226.33 40.3403C1226.22 40.2783 1226.13 40.1949 1226.05 40.0948C1225.97 39.9948 1225.91 39.8801 1225.88 39.7575C1225.85 39.6349 1225.84 39.5069 1225.85 39.3809C1225.9 39.1261 1226.05 38.9004 1226.26 38.7515C1226.48 38.6026 1226.74 38.5421 1226.99 38.5826C1227.12 38.5982 1227.24 38.6385 1227.35 38.7014C1227.46 38.7642 1227.56 38.8483 1227.64 38.9488C1227.71 39.0493 1227.77 39.1641 1227.8 39.2867C1227.84 39.4093 1227.84 39.5372 1227.83 39.6631C1227.78 39.9171 1227.63 40.1421 1227.42 40.2902C1227.21 40.4382 1226.95 40.4975 1226.69 40.4554Z" fill="#E4A92E"/>
<path d="M1227.55 44.0283C1227.46 44.0203 1227.39 43.9958 1227.31 43.9563C1227.24 43.9168 1227.18 43.8631 1227.13 43.7985C1227.08 43.7339 1227.04 43.6599 1227.02 43.5808C1227 43.5017 1227 43.4193 1227.01 43.3386C1227.02 43.2564 1227.05 43.1773 1227.09 43.1065C1227.14 43.0357 1227.2 42.9747 1227.26 42.9274C1227.33 42.88 1227.41 42.8474 1227.49 42.8314C1227.57 42.8155 1227.66 42.8167 1227.74 42.8349C1227.82 42.843 1227.9 42.8673 1227.97 42.9064C1228.04 42.9456 1228.1 42.9987 1228.15 43.0626C1228.2 43.1265 1228.24 43.1998 1228.26 43.2782C1228.28 43.3566 1228.28 43.4383 1228.27 43.5186C1228.24 43.6813 1228.15 43.8256 1228.01 43.9208C1227.88 44.016 1227.71 44.0546 1227.55 44.0283Z" fill="#E4A92E"/>
<path d="M1231.52 48.6599V48.5819C1231.52 47.7045 1230.81 46.9932 1229.93 46.9932H1229.68C1228.8 46.9932 1228.09 47.7045 1228.09 48.5819V48.6599C1228.09 49.5373 1228.8 50.2486 1229.68 50.2486H1229.93C1230.81 50.2486 1231.52 49.5373 1231.52 48.6599Z" fill="#E4A92E"/>
<path d="M1231.4 43.1221H1231.22C1230.6 43.1221 1230.11 43.6191 1230.11 44.2323V44.2863C1230.11 44.8994 1230.6 45.3965 1231.22 45.3965H1231.4C1232.01 45.3965 1232.51 44.8994 1232.51 44.2863V44.2323C1232.51 43.6191 1232.01 43.1221 1231.4 43.1221Z" fill="#E4A92E"/>
<path d="M1225.34 41.8809H1224.71V42.4803H1225.34V41.8809Z" fill="#E4A92E"/>
<path d="M1233.41 47.5674H1232.77V48.1662H1233.41V47.5674Z" fill="#E4A92E"/>
<path d="M1230.68 39.9072H1230.04V40.5097H1230.68V39.9072Z" fill="#E4A92E"/>
<path d="M1221.93 48.8701H1221.29V49.4696H1221.93V48.8701Z" fill="#E4A92E"/>
<path d="M1596.09 0H1276.93V91.7897H1596.09V0Z" fill="#E4A92E"/>
<path d="M1310.73 59.2102V57.9262L1323.58 37.965H1311.36V33.0332H1331.75V34.3172L1318.89 54.2844H1332.31V59.2102H1310.73Z" fill="black"/>
<path d="M1337.94 33.0332H1357.57V37.923H1343.45V43.5568H1355.83V48.4406H1343.45V54.3264H1357.74V59.2102H1337.94V33.0332Z" fill="black"/>
<path d="M1369.09 59.2102H1363.54V33.0332H1374.19C1380.79 33.0332 1383.76 36.1831 1383.76 41.0309C1383.76 43.9288 1382.72 46.7427 1379.74 48.3626L1385.7 59.2102H1379.52L1374.47 49.7966C1373.93 49.8386 1373.4 49.8386 1372.82 49.8386C1371.57 49.8294 1370.33 49.7472 1369.09 49.5926V59.2102ZM1369.09 44.7567C1370.35 45.0067 1371.62 45.1452 1372.9 45.1707C1375.55 45.1707 1378.08 44.3848 1378.08 41.2769C1378.08 38.913 1376.28 37.839 1373.23 37.839H1369.09V44.7567Z" fill="black"/>
<path d="M1390.09 46.2406C1390.17 38.1236 1395.76 32.5742 1404 32.5742C1412.25 32.5742 1417.8 38.1236 1417.88 46.2406C1417.8 54.3216 1412.33 59.955 1404 59.955C1395.68 59.955 1390.17 54.3216 1390.09 46.2406ZM1412.04 46.2406C1412.04 40.9852 1408.6 37.7096 1404 37.7096C1399.4 37.7096 1396.01 40.9852 1396.01 46.2406C1396.01 51.496 1399.41 54.7356 1404 54.7356C1408.6 54.7356 1412.04 51.502 1412.04 46.2406Z" fill="black"/>
<path d="M1446.25 59.2132H1440.4V31.833H1451.2C1459.26 31.833 1462.25 36.2544 1462.25 41.5396C1462.25 48.7386 1456.7 51.3723 1451.03 51.3723C1449.43 51.395 1447.83 51.2644 1446.26 50.9823L1446.25 59.2132ZM1446.25 46.171C1447.55 46.3661 1448.87 46.4544 1450.19 46.435C1453.57 46.435 1456.12 45.0911 1456.12 41.4077C1456.12 38.942 1455.04 36.9443 1450.85 36.9443H1446.25V46.171Z" fill="black"/>
<path d="M1468.99 31.833H1474.84V59.2132H1468.99V31.833Z" fill="black"/>
<path d="M1481.16 59.2132V57.8694L1494.59 36.9923H1481.81V31.833H1503.1V33.1768L1489.7 54.0599H1503.7V59.2132H1481.16Z" fill="black"/>
<path d="M1508.58 59.2132V57.8694L1522.01 36.9923H1509.23V31.833H1530.54V33.1768L1517.11 54.0599H1531.15V59.2132H1508.58Z" fill="black"/>
<path d="M1533.31 59.2125H1562.29L1559.68 54.0605H1535.86L1533.31 59.2125Z" fill="black"/>
<path d="M1558.74 52.104L1548.48 31.833H1546.87L1536.87 52.104H1558.74Z" fill="black"/>
<path d="M1548.47 35.2815C1548.54 35.363 1548.59 35.4581 1548.62 35.561C1548.65 35.6639 1548.67 35.7724 1548.66 35.8798C1548.64 35.9872 1548.61 36.0913 1548.56 36.1857C1548.51 36.2801 1548.44 36.3629 1548.35 36.4289C1548.17 36.5639 1547.95 36.6276 1547.73 36.6076C1547.51 36.5876 1547.3 36.4853 1547.15 36.3207C1547.08 36.2396 1547.03 36.1446 1546.99 36.0416C1546.96 35.9386 1546.95 35.8299 1546.96 35.7222C1546.97 35.6145 1547 35.5102 1547.06 35.4157C1547.11 35.3213 1547.18 35.2388 1547.27 35.1734C1547.44 35.041 1547.66 34.9788 1547.89 34.9988C1548.11 35.0187 1548.31 35.1193 1548.47 35.2815Z" fill="#E4A92E"/>
<path d="M1542.7 47.011C1542.61 46.8922 1542.54 46.7554 1542.5 46.6091C1542.46 46.4629 1542.46 46.3104 1542.48 46.1612C1542.5 46.0119 1542.56 45.8692 1542.64 45.7419C1542.72 45.6146 1542.83 45.5054 1542.95 45.4212C1543.21 45.2421 1543.53 45.1673 1543.84 45.2118C1544.15 45.2563 1544.43 45.4168 1544.63 45.6612C1544.72 45.7804 1544.79 45.9172 1544.83 46.0633C1544.87 46.2094 1544.87 46.3617 1544.85 46.5106C1544.83 46.6596 1544.77 46.8022 1544.69 46.9295C1544.61 47.0568 1544.5 47.1663 1544.38 47.251C1544.12 47.4302 1543.8 47.505 1543.49 47.4605C1543.18 47.416 1542.9 47.2555 1542.7 47.011Z" fill="#E4A92E"/>
<path d="M1543.3 46.5907C1543.26 46.5459 1543.24 46.4942 1543.23 46.439C1543.21 46.3838 1543.21 46.3263 1543.22 46.27C1543.23 46.2137 1543.25 46.1599 1543.28 46.1119C1543.31 46.0639 1543.35 46.0228 1543.4 45.9912C1543.49 45.9222 1543.61 45.8932 1543.73 45.9099C1543.85 45.9266 1543.96 45.9879 1544.03 46.0811C1544.07 46.126 1544.09 46.1776 1544.11 46.2328C1544.12 46.288 1544.12 46.3455 1544.12 46.4018C1544.11 46.4581 1544.09 46.512 1544.05 46.5599C1544.02 46.6079 1543.98 46.649 1543.94 46.6807C1543.84 46.7468 1543.72 46.7743 1543.6 46.7577C1543.48 46.7411 1543.38 46.6816 1543.3 46.5907Z" fill="#E4A92E"/>
<path d="M1544.21 49.791C1544.05 49.7701 1543.91 49.6886 1543.81 49.5642C1543.72 49.4398 1543.67 49.2825 1543.69 49.1262C1543.7 49.0476 1543.73 48.9724 1543.77 48.9049C1543.82 48.8375 1543.87 48.7792 1543.94 48.7335C1544 48.6877 1544.08 48.6555 1544.16 48.6386C1544.23 48.6217 1544.31 48.6205 1544.39 48.6352C1544.55 48.6561 1544.69 48.7375 1544.79 48.8619C1544.88 48.9863 1544.93 49.1437 1544.91 49.2999C1544.9 49.3785 1544.87 49.4538 1544.82 49.5212C1544.78 49.5887 1544.73 49.647 1544.66 49.6927C1544.6 49.7384 1544.52 49.7707 1544.44 49.7876C1544.37 49.8045 1544.28 49.8056 1544.21 49.791Z" fill="#E4A92E"/>
<path d="M1554.44 50.5033C1554.29 50.4824 1554.15 50.4016 1554.05 50.2784C1553.95 50.1552 1553.91 49.9992 1553.92 49.8437C1553.94 49.765 1553.97 49.6896 1554.01 49.6221C1554.05 49.5546 1554.11 49.4962 1554.17 49.4504C1554.24 49.4046 1554.31 49.3723 1554.39 49.3554C1554.47 49.3385 1554.55 49.3373 1554.63 49.352C1554.78 49.3729 1554.92 49.4545 1555.02 49.579C1555.12 49.7036 1555.16 49.8611 1555.14 50.0176C1555.13 50.0958 1555.1 50.1705 1555.06 50.2373C1555.01 50.3042 1554.96 50.3619 1554.89 50.407C1554.83 50.4522 1554.75 50.484 1554.68 50.5005C1554.6 50.5171 1554.52 50.518 1554.44 50.5033Z" fill="#E4A92E"/>
<path d="M1545.86 40.4554C1545.73 40.4413 1545.61 40.4022 1545.5 40.3403C1545.39 40.2783 1545.29 40.1949 1545.21 40.0948C1545.13 39.9948 1545.07 39.8801 1545.04 39.7575C1545.01 39.6349 1545 39.5069 1545.02 39.3809C1545.07 39.1261 1545.21 38.9004 1545.42 38.7515C1545.64 38.6026 1545.9 38.5421 1546.16 38.5826C1546.28 38.5982 1546.4 38.6385 1546.51 38.7014C1546.62 38.7642 1546.72 38.8483 1546.8 38.9488C1546.88 39.0493 1546.93 39.1641 1546.97 39.2867C1547 39.4093 1547.01 39.5372 1546.99 39.6631C1546.94 39.9171 1546.8 40.1421 1546.58 40.2902C1546.37 40.4382 1546.11 40.4975 1545.86 40.4554Z" fill="#E4A92E"/>
<path d="M1546.71 44.0283C1546.63 44.0203 1546.55 43.9958 1546.48 43.9563C1546.4 43.9168 1546.34 43.8631 1546.29 43.7985C1546.24 43.7339 1546.21 43.6599 1546.19 43.5808C1546.17 43.5017 1546.16 43.4193 1546.17 43.3386C1546.19 43.2564 1546.21 43.1773 1546.26 43.1065C1546.3 43.0357 1546.36 42.9747 1546.43 42.9274C1546.49 42.88 1546.57 42.8474 1546.65 42.8314C1546.73 42.8155 1546.82 42.8167 1546.9 42.8349C1546.98 42.843 1547.06 42.8673 1547.13 42.9064C1547.2 42.9456 1547.26 42.9987 1547.31 43.0626C1547.36 43.1265 1547.4 43.1998 1547.42 43.2782C1547.44 43.3566 1547.45 43.4383 1547.43 43.5186C1547.4 43.6813 1547.31 43.8256 1547.17 43.9208C1547.04 44.016 1546.87 44.0546 1546.71 44.0283Z" fill="#E4A92E"/>
<path d="M1550.69 48.6599V48.5819C1550.69 47.7045 1549.97 46.9932 1549.1 46.9932H1548.84C1547.96 46.9932 1547.25 47.7045 1547.25 48.5819V48.6599C1547.25 49.5373 1547.96 50.2486 1548.84 50.2486H1549.1C1549.97 50.2486 1550.69 49.5373 1550.69 48.6599Z" fill="#E4A92E"/>
<path d="M1550.56 43.1221H1550.38C1549.77 43.1221 1549.27 43.6191 1549.27 44.2323V44.2863C1549.27 44.8994 1549.77 45.3965 1550.38 45.3965H1550.56C1551.17 45.3965 1551.67 44.8994 1551.67 44.2863V44.2323C1551.67 43.6191 1551.17 43.1221 1550.56 43.1221Z" fill="#E4A92E"/>
<path d="M1544.51 41.8809H1543.87V42.4803H1544.51V41.8809Z" fill="#E4A92E"/>
<path d="M1552.57 47.5674H1551.93V48.1662H1552.57V47.5674Z" fill="#E4A92E"/>
<path d="M1549.84 39.9072H1549.2V40.5097H1549.84V39.9072Z" fill="#E4A92E"/>
<path d="M1541.09 48.8701H1540.46V49.4696H1541.09V48.8701Z" fill="#E4A92E"/>
<path d="M1914 0H1594.84V91.7897H1914V0Z" fill="#E4A92E"/>
<path d="M1628.64 59.2092V57.9253L1641.48 37.964H1629.26V33.0322H1649.66V34.3162L1636.8 54.2834H1650.22V59.2092H1628.64Z" fill="black"/>
<path d="M1655.85 33.0322H1675.48V37.922H1661.36V43.5558H1673.74V48.4396H1661.36V54.3254H1675.65V59.2092H1655.85V33.0322Z" fill="black"/>
<path d="M1687 59.2092H1681.44V33.0322H1692.09C1698.69 33.0322 1701.66 36.1821 1701.66 41.0299C1701.66 43.9278 1700.62 46.7417 1697.64 48.3616L1703.6 59.2092H1697.43L1692.38 49.7956C1691.84 49.8376 1691.31 49.8376 1690.72 49.8376C1689.48 49.8284 1688.23 49.7463 1687 49.5916V59.2092ZM1687 44.7558C1688.25 45.0057 1689.53 45.1443 1690.81 45.1698C1693.46 45.1698 1695.99 44.3838 1695.99 41.2759C1695.99 38.912 1694.19 37.838 1691.14 37.838H1687V44.7558Z" fill="black"/>
<path d="M1708 46.2416C1708.07 38.1245 1713.67 32.5752 1721.91 32.5752C1730.15 32.5752 1735.71 38.1245 1735.79 46.2416C1735.7 54.3226 1730.24 59.956 1721.91 59.956C1713.58 59.956 1708.07 54.3226 1708 46.2416ZM1729.95 46.2416C1729.95 40.9862 1726.51 37.7106 1721.91 37.7106C1717.31 37.7106 1713.92 40.9862 1713.92 46.2416C1713.92 51.497 1717.31 54.7366 1721.91 54.7366C1726.5 54.7366 1729.95 51.503 1729.95 46.2416Z" fill="black"/>
<path d="M1764.16 59.2128H1758.31V31.832H1769.1C1777.16 31.832 1780.16 36.2535 1780.16 41.5389C1780.16 48.738 1774.61 51.3717 1768.93 51.3717C1767.33 51.3945 1765.74 51.2639 1764.17 50.9818L1764.16 59.2128ZM1764.16 46.1703C1765.46 46.3655 1766.78 46.4538 1768.1 46.4343C1771.47 46.4343 1774.03 45.0905 1774.03 41.4069C1774.03 38.9412 1772.95 36.9434 1768.75 36.9434H1764.16V46.1703Z" fill="black"/>
<path d="M1786.89 31.832H1792.74V59.2128H1786.89V31.832Z" fill="black"/>
<path d="M1799.07 59.2128V57.869L1812.5 36.9914H1799.72V31.832H1821.01V33.1759L1807.6 54.0594H1821.61V59.2128H1799.07Z" fill="black"/>
<path d="M1826.48 59.2128V57.869L1839.91 36.9914H1827.14V31.832H1848.45V33.1759L1835.02 54.0594H1849.05V59.2128H1826.48Z" fill="black"/>
<path d="M1851.22 59.2115H1880.2L1877.59 54.0596H1853.76L1851.22 59.2115Z" fill="black"/>
<path d="M1876.64 52.1036L1866.38 31.832H1864.78L1854.77 52.1036H1876.64Z" fill="black"/>
<path d="M1866.37 35.2814C1866.44 35.3629 1866.5 35.458 1866.53 35.5608C1866.56 35.6636 1866.57 35.7721 1866.56 35.8794C1866.55 35.9868 1866.52 36.0909 1866.47 36.1853C1866.41 36.2797 1866.34 36.3624 1866.26 36.4283C1866.08 36.5633 1865.86 36.627 1865.64 36.607C1865.41 36.587 1865.21 36.4847 1865.06 36.3202C1864.99 36.2391 1864.93 36.1441 1864.9 36.0412C1864.87 35.9382 1864.85 35.8295 1864.86 35.7219C1864.88 35.6143 1864.91 35.51 1864.96 35.4156C1865.01 35.3212 1865.09 35.2387 1865.17 35.1733C1865.35 35.041 1865.57 34.9788 1865.79 34.9988C1866.01 35.0187 1866.22 35.1193 1866.37 35.2814Z" fill="#E4A92E"/>
<path d="M1860.61 47.011C1860.51 46.8922 1860.45 46.7554 1860.41 46.6091C1860.37 46.4629 1860.36 46.3104 1860.39 46.1612C1860.41 46.0119 1860.46 45.8692 1860.54 45.7419C1860.63 45.6146 1860.73 45.5054 1860.86 45.4212C1861.12 45.2421 1861.43 45.1673 1861.75 45.2118C1862.06 45.2563 1862.34 45.4168 1862.54 45.6612C1862.63 45.7804 1862.7 45.9172 1862.74 46.0633C1862.77 46.2094 1862.78 46.3617 1862.76 46.5106C1862.73 46.6596 1862.68 46.8022 1862.6 46.9295C1862.52 47.0568 1862.41 47.1663 1862.29 47.251C1862.03 47.4302 1861.71 47.505 1861.4 47.4605C1861.09 47.416 1860.8 47.2555 1860.61 47.011Z" fill="#E4A92E"/>
<path d="M1861.21 46.5898C1861.17 46.5449 1861.15 46.4932 1861.13 46.4381C1861.12 46.3829 1861.11 46.3253 1861.12 46.269C1861.13 46.2127 1861.15 46.1589 1861.18 46.1109C1861.21 46.0629 1861.25 46.0218 1861.3 45.9902C1861.4 45.9213 1861.52 45.8922 1861.64 45.9089C1861.76 45.9256 1861.86 45.9869 1861.94 46.0801C1861.97 46.125 1862 46.1766 1862.01 46.2318C1862.03 46.287 1862.03 46.3446 1862.02 46.4009C1862.01 46.4572 1861.99 46.511 1861.96 46.559C1861.93 46.607 1861.89 46.648 1861.84 46.6797C1861.74 46.7459 1861.62 46.7733 1861.51 46.7567C1861.39 46.7401 1861.28 46.6806 1861.21 46.5898Z" fill="#E4A92E"/>
<path d="M1862.11 49.7926C1861.96 49.7717 1861.81 49.6902 1861.72 49.5657C1861.62 49.4412 1861.58 49.2838 1861.6 49.1275C1861.61 49.0488 1861.64 48.9735 1861.68 48.9061C1861.72 48.8386 1861.78 48.7802 1861.84 48.7345C1861.91 48.6887 1861.98 48.6565 1862.06 48.6396C1862.14 48.6227 1862.22 48.6215 1862.3 48.6361C1862.45 48.6571 1862.6 48.7386 1862.69 48.863C1862.79 48.9875 1862.83 49.1449 1862.81 49.3013C1862.8 49.3799 1862.77 49.4552 1862.73 49.5227C1862.69 49.5902 1862.63 49.6485 1862.57 49.6942C1862.5 49.74 1862.43 49.7723 1862.35 49.7892C1862.27 49.8061 1862.19 49.8072 1862.11 49.7926Z" fill="#E4A92E"/>
<path d="M1872.35 50.5004C1872.19 50.4794 1872.05 50.3987 1871.95 50.2755C1871.86 50.1523 1871.81 49.9963 1871.83 49.8408C1871.84 49.762 1871.87 49.6867 1871.91 49.6192C1871.96 49.5516 1872.01 49.4933 1872.08 49.4475C1872.14 49.4017 1872.22 49.3694 1872.3 49.3525C1872.37 49.3356 1872.45 49.3344 1872.53 49.349C1872.69 49.37 1872.83 49.4515 1872.93 49.5761C1873.02 49.7007 1873.07 49.8582 1873.05 50.0147C1873.03 50.0928 1873.01 50.1675 1872.96 50.2344C1872.92 50.3012 1872.86 50.3589 1872.8 50.4041C1872.73 50.4493 1872.66 50.4811 1872.58 50.4976C1872.5 50.5141 1872.42 50.5151 1872.35 50.5004Z" fill="#E4A92E"/>
<path d="M1863.76 40.4534C1863.64 40.4393 1863.51 40.4002 1863.4 40.3383C1863.29 40.2764 1863.19 40.193 1863.12 40.0929C1863.04 39.9928 1862.98 39.8781 1862.95 39.7555C1862.91 39.6329 1862.91 39.5049 1862.92 39.379C1862.97 39.1241 1863.12 38.8985 1863.33 38.7496C1863.54 38.6007 1863.81 38.5401 1864.06 38.5807C1864.19 38.5962 1864.31 38.6366 1864.42 38.6994C1864.53 38.7623 1864.63 38.8464 1864.7 38.9468C1864.78 39.0473 1864.84 39.1622 1864.87 39.2848C1864.9 39.4074 1864.91 39.5353 1864.9 39.6611C1864.85 39.9151 1864.7 40.1402 1864.49 40.2882C1864.28 40.4363 1864.02 40.4956 1863.76 40.4534Z" fill="#E4A92E"/>
<path d="M1864.61 44.0283C1864.53 44.0203 1864.45 43.9958 1864.38 43.9563C1864.31 43.9168 1864.25 43.8631 1864.2 43.7985C1864.15 43.7339 1864.11 43.6599 1864.09 43.5808C1864.07 43.5017 1864.07 43.4193 1864.08 43.3386C1864.09 43.2564 1864.12 43.1773 1864.16 43.1065C1864.21 43.0357 1864.26 42.9747 1864.33 42.9274C1864.4 42.88 1864.48 42.8474 1864.56 42.8314C1864.64 42.8155 1864.72 42.8167 1864.81 42.8349C1864.89 42.843 1864.96 42.8673 1865.04 42.9064C1865.11 42.9456 1865.17 42.9987 1865.22 43.0626C1865.27 43.1265 1865.31 43.1998 1865.33 43.2782C1865.35 43.3566 1865.35 43.4383 1865.34 43.5186C1865.31 43.6813 1865.22 43.8256 1865.08 43.9208C1864.94 44.016 1864.78 44.0546 1864.61 44.0283Z" fill="#E4A92E"/>
<path d="M1868.59 48.6602V48.5822C1868.59 47.7046 1867.88 46.9932 1867 46.9932H1866.74C1865.87 46.9932 1865.15 47.7046 1865.15 48.5822V48.6602C1865.15 49.5378 1865.87 50.2493 1866.74 50.2493H1867C1867.88 50.2493 1868.59 49.5378 1868.59 48.6602Z" fill="#E4A92E"/>
<path d="M1868.47 43.1221H1868.29C1867.67 43.1221 1867.18 43.6189 1867.18 44.2317V44.2857C1867.18 44.8985 1867.67 45.3953 1868.29 45.3953H1868.47C1869.08 45.3953 1869.57 44.8985 1869.57 44.2857V44.2317C1869.57 43.6189 1869.08 43.1221 1868.47 43.1221Z" fill="#E4A92E"/>
<path d="M1862.41 41.8809H1861.78V42.4803H1862.41V41.8809Z" fill="#E4A92E"/>
<path d="M1870.48 47.5684H1869.84V48.1672H1870.48V47.5684Z" fill="#E4A92E"/>
<path d="M1867.75 39.9072H1867.11V40.5091H1867.75V39.9072Z" fill="#E4A92E"/>
<path d="M1859 48.8701H1858.36V49.4689H1859V48.8701Z" fill="#E4A92E"/>
</svg>
