<svg width="310" height="175" viewBox="0 0 310 175" fill="none" xmlns="http://www.w3.org/2000/svg">
<g opacity="0.2">
<path d="M115.382 122.551C101.114 122.551 89.5839 134.123 89.5839 148.391C89.5839 162.617 101.114 174.19 115.382 174.19C129.65 174.19 141.181 162.617 141.181 148.391C141.18 134.123 129.65 122.551 115.382 122.551ZM115.382 161.29C108.248 161.29 102.483 155.483 102.483 148.39C102.483 141.257 108.248 135.491 115.382 135.491C122.516 135.491 128.282 141.257 128.282 148.39C128.281 155.483 122.516 161.29 115.382 161.29ZM309.958 103.465V131.012C309.958 137.884 304.387 143.455 297.515 143.455H284.201C281.795 126.947 267.569 114.255 250.397 114.255C233.268 114.255 219.041 126.948 216.635 143.455H149.153C146.747 126.947 132.52 114.255 115.391 114.255C98.2607 114.255 84.034 126.948 81.6288 143.455H64.9551C58.083 143.455 52.5124 137.885 52.5124 131.012V103.465H309.958ZM250.431 122.551C236.163 122.551 224.591 134.123 224.591 148.391C224.591 162.617 236.163 174.19 250.431 174.19C264.657 174.19 276.229 162.617 276.229 148.391C276.229 134.123 264.657 122.551 250.431 122.551ZM250.431 161.29C243.296 161.29 237.531 155.483 237.531 148.39C237.531 141.257 243.296 135.491 250.431 135.491C257.523 135.491 263.33 141.257 263.33 148.39C263.33 155.483 257.523 161.29 250.431 161.29ZM305.055 75.7239L256.155 27.362C253.044 24.2926 248.855 22.5506 244.499 22.5506H219.821V13.301C219.821 6.4163 214.263 0.858398 207.378 0.858398H64.9465C58.1027 0.858398 52.5038 6.4168 52.5038 13.301V15.2507L2.00983 21.0702L91.483 32.7214L0.848145 41.7249L91.1638 54.5656L0.848145 62.3963L52.5069 72.1393L52.5033 96.5867H309.949V87.5029C309.949 83.0647 308.166 78.8347 305.055 75.7239ZM283.736 77.3411H236.412C235.333 77.3411 234.462 76.4704 234.462 75.392V38.851C234.462 37.7727 235.333 36.9014 236.412 36.9014H245.412C245.91 36.9014 246.408 37.109 246.781 37.4408L285.064 73.9818C286.349 75.1844 285.478 77.3411 283.736 77.3411Z" fill="#BCB2B2"/>
</g>
</svg>
