<svg width="30" height="30" viewBox="0 0 30 30" fill="none" xmlns="http://www.w3.org/2000/svg">
<path d="M15 30C23.2843 30 30 23.2843 30 15C30 6.71573 23.2843 0 15 0C6.71573 0 0 6.71573 0 15C0 23.2843 6.71573 30 15 30Z" fill="url(#paint0_linear)"/>
<path d="M14.9999 10.587C14.1271 10.587 13.2739 10.8459 12.5482 11.3308C11.8225 11.8157 11.2568 12.5049 10.9228 13.3112C10.5888 14.1176 10.5014 15.0049 10.6717 15.8609C10.842 16.717 11.2623 17.5033 11.8794 18.1205C12.4966 18.7376 13.2829 19.1579 14.139 19.3282C14.995 19.4985 15.8823 19.4111 16.6887 19.0771C17.495 18.7431 18.1843 18.1774 18.6692 17.4517C19.1541 16.726 19.4129 15.8728 19.4129 15C19.4123 13.8298 18.9471 12.7077 18.1197 11.8802C17.2922 11.0528 16.1701 10.5876 14.9999 10.587ZM14.9999 17.8655C14.4332 17.8655 13.8792 17.6974 13.4079 17.3826C12.9367 17.0677 12.5694 16.6202 12.3526 16.0966C12.1357 15.573 12.0789 14.9968 12.1895 14.441C12.3001 13.8852 12.573 13.3746 12.9737 12.9738C13.3745 12.5731 13.885 12.3002 14.4409 12.1896C14.9967 12.0791 15.5729 12.1358 16.0965 12.3527C16.62 12.5696 17.0676 12.9368 17.3824 13.4081C17.6973 13.8793 17.8653 14.4333 17.8653 15C17.8656 15.3764 17.7917 15.7491 17.6478 16.0969C17.5039 16.4447 17.2929 16.7607 17.0267 17.0269C16.7606 17.293 16.4446 17.5041 16.0968 17.648C15.749 17.7919 15.3763 17.8658 14.9999 17.8655Z" fill="white"/>
<path d="M23.5412 11.4572C23.5276 10.7446 23.3925 10.0396 23.1417 9.37245C22.9205 8.80193 22.583 8.28374 22.1505 7.85088C21.718 7.41801 21.2002 7.07997 20.6298 6.85829C19.9616 6.60863 19.256 6.47357 18.5428 6.45878C17.6243 6.41745 17.335 6.40826 15 6.40826C12.6649 6.40826 12.3733 6.40826 11.4572 6.45878C10.7447 6.47352 10.0398 6.60859 9.37238 6.85829C8.80039 7.08073 8.28124 7.42032 7.84826 7.85528C7.41529 8.29023 7.07806 8.81093 6.85823 9.38393C6.60853 10.0514 6.47346 10.7562 6.45872 11.4687C6.41739 12.3871 6.4082 12.6787 6.4082 15.0115C6.4082 17.3443 6.4082 17.6382 6.45872 18.5543C6.47351 19.2675 6.60857 19.9731 6.85823 20.6414C7.08118 21.2128 7.42099 21.7314 7.8559 22.1639C8.2908 22.5965 8.81123 22.9334 9.38386 23.1532C10.051 23.404 10.7561 23.5391 11.4687 23.5528C12.3871 23.5941 12.6787 23.6056 15.0114 23.6056C17.3442 23.6056 17.6381 23.5941 18.5542 23.5528C19.2676 23.5391 19.9734 23.404 20.6413 23.1532C21.2113 22.9316 21.7289 22.5938 22.1613 22.1614C22.5937 21.729 22.9315 21.2113 23.1532 20.6414C23.404 19.9734 23.5391 19.2676 23.5527 18.5543C23.594 17.6359 23.6055 17.3466 23.6055 15.0115C23.6055 12.6764 23.5825 12.3734 23.5412 11.4572ZM21.9937 18.4716C21.9894 19.0203 21.8899 19.5641 21.6998 20.0789C21.5572 20.4501 21.3381 20.7872 21.0569 21.0685C20.7757 21.3497 20.4386 21.5687 20.0673 21.7113C19.5526 21.9015 19.0088 22.0009 18.4601 22.0052C17.5555 22.0466 17.2845 22.0557 14.9885 22.0557C12.6925 22.0557 12.4215 22.0557 11.5169 22.0052C10.9682 22.0009 10.4244 21.9015 9.90966 21.7113C9.53899 21.5682 9.20243 21.3489 8.92165 21.0678C8.64088 20.7866 8.42212 20.4497 8.27947 20.0789C8.08709 19.5647 7.98682 19.0206 7.98328 18.4716C7.94195 17.567 7.93277 17.2938 7.93277 15C7.93277 12.7063 7.93277 12.4354 7.98328 11.5284C7.98682 10.9794 8.08709 10.4354 8.27947 9.9212C8.42264 9.5509 8.6416 9.2146 8.92233 8.93387C9.20306 8.65314 9.53936 8.43418 9.90966 8.29101C10.4238 8.09863 10.9679 7.99837 11.5169 7.99482C12.4238 7.9535 12.6947 7.94431 14.9885 7.94431C17.2822 7.94431 17.5555 7.94431 18.4601 7.99482C19.0091 7.99837 19.5531 8.09863 20.0673 8.29101C20.4382 8.43366 20.7751 8.65242 21.0562 8.93319C21.3374 9.21397 21.5566 9.55053 21.6998 9.9212C21.8899 10.4359 21.9894 10.9797 21.9937 11.5284C22.035 12.4354 22.0442 12.7063 22.0442 15C22.0442 17.2938 22.0419 17.567 21.9937 18.4716Z" fill="white"/>
<path d="M19.5873 9.38159C19.3827 9.38114 19.1826 9.44141 19.0124 9.55477C18.8421 9.66812 18.7093 9.82946 18.6308 10.0184C18.5524 10.2072 18.5317 10.4152 18.5715 10.6158C18.6113 10.8165 18.7097 11.0008 18.8544 11.1454C18.999 11.29 19.1833 11.3885 19.384 11.4283C19.5846 11.4681 19.7925 11.4474 19.9814 11.3689C20.1703 11.2904 20.3317 11.1577 20.445 10.9874C20.5584 10.8171 20.6186 10.6171 20.6182 10.4125C20.6182 10.1391 20.5096 9.87688 20.3162 9.68354C20.1229 9.49021 19.8607 9.38159 19.5873 9.38159Z" fill="white"/>
<defs>
<linearGradient id="paint0_linear" x1="25.5112" y1="4.48875" x2="4.29818" y2="25.7018" gradientUnits="userSpaceOnUse">
<stop stop-color="#904D9D"/>
<stop offset="0.25" stop-color="#B2328F"/>
<stop offset="0.5" stop-color="#DF3E6B"/>
<stop offset="0.75" stop-color="#F37D2F"/>
<stop offset="1" stop-color="#F6B656"/>
</linearGradient>
</defs>
</svg>
