<svg width="25" height="34" viewBox="0 0 25 34" fill="none" xmlns="http://www.w3.org/2000/svg">
<path d="M12.4995 0.324219C19.1157 0.324219 24.499 5.77446 24.499 12.4736C24.499 14.221 24.1458 15.8894 23.4496 17.4328C20.4494 24.0796 14.6971 31.0972 13.0052 33.0895C12.8785 33.2384 12.6937 33.3242 12.4992 33.3242C12.3047 33.3242 12.1199 33.2384 11.9932 33.0895C10.3019 31.0976 4.54967 24.0803 1.54846 17.4328C0.851952 15.8894 0.499023 14.221 0.499023 12.4736C0.499691 5.77446 5.88299 0.324219 12.4995 0.324219ZM12.4995 18.784C15.9364 18.784 18.7328 15.9529 18.7328 12.4733C18.7328 8.99334 15.9364 6.16217 12.4995 6.16217C9.06266 6.16217 6.26627 8.99334 6.26627 12.4733C6.26593 15.9529 9.06233 18.784 12.4995 18.784Z" fill="black"/>
</svg>
