<svg width="265" height="72" viewBox="0 0 265 72" fill="none" xmlns="http://www.w3.org/2000/svg">
<path d="M264.853 0.70459H0.271851V71.0695H264.853V0.70459Z" fill="black"/>
<path d="M28.2916 46.0926V45.1084L38.9395 29.8073H28.8089V26.0269H45.7182V27.0111L35.0554 42.3168H46.1807V46.0926H28.2916Z" fill="white"/>
<path d="M50.8511 26.0269H67.1237V29.7751H55.4166V34.0936H65.6815V37.8373H55.4166V42.349H67.263V46.0926H50.8511V26.0269Z" fill="white"/>
<path d="M76.6718 46.0926H72.0665V26.0269H80.8942C86.3648 26.0269 88.8266 28.4414 88.8266 32.1574C88.8266 34.3788 87.9662 36.5357 85.4945 37.7775L90.438 46.0926H85.3154L81.1329 38.8767C80.6853 38.9089 80.2427 38.9089 79.7603 38.9089C78.7277 38.9018 77.6964 38.8389 76.6718 38.7203V46.0926ZM76.6718 35.0135C77.7123 35.205 78.7691 35.3112 79.8299 35.3308C82.0281 35.3308 84.1219 34.7283 84.1219 32.346C84.1219 30.534 82.6299 29.7107 80.1034 29.7107H76.6718V35.0135Z" fill="white"/>
<path d="M94.079 36.1526C94.1436 29.93 98.7788 25.6758 105.612 25.6758C112.445 25.6758 117.051 29.93 117.115 36.1526C117.046 42.3476 112.515 46.6661 105.612 46.6661C98.7091 46.6661 94.1436 42.3476 94.079 36.1526ZM112.276 36.1526C112.276 32.1237 109.427 29.6126 105.612 29.6126C101.798 29.6126 98.9877 32.1237 98.9877 36.1526C98.9877 40.1814 101.803 42.6649 105.612 42.6649C109.422 42.6649 112.276 40.186 112.276 36.1526Z" fill="white"/>
<path d="M140.634 46.0987H135.785V25.1079H144.737C151.416 25.1079 153.898 28.4975 153.898 32.5494C153.898 38.0685 149.298 40.0875 144.593 40.0875C143.269 40.105 141.947 40.0049 140.644 39.7886L140.634 46.0987ZM140.634 36.1C141.715 36.2496 142.808 36.3173 143.901 36.3024C146.701 36.3024 148.82 35.2722 148.82 32.4482C148.82 30.558 147.925 29.0264 144.444 29.0264H140.634V36.1Z" fill="white"/>
<path d="M159.483 25.1079H164.332V46.0987H159.483V25.1079Z" fill="white"/>
<path d="M169.574 46.0987V45.0685L180.709 29.0632H170.116V25.1079H187.766V26.1381L176.651 42.148H188.264V46.0987H169.574Z" fill="white"/>
<path d="M192.302 46.0987V45.0685L203.437 29.0632H192.844V25.1079H210.509V26.1381L199.379 42.148H211.012V46.0987H192.302Z" fill="white"/>
<path d="M212.807 46.0977H236.834L234.67 42.146H214.916L212.807 46.0977Z" fill="white"/>
<path d="M233.884 40.6482L225.379 25.1069H224.046L215.756 40.6482H233.884Z" fill="white"/>
<path d="M225.37 27.7503C225.429 27.8127 225.473 27.8854 225.5 27.9641C225.527 28.0428 225.537 28.1258 225.528 28.2079C225.519 28.2901 225.492 28.3697 225.449 28.4419C225.405 28.5142 225.346 28.5775 225.276 28.6279C225.128 28.7312 224.945 28.7799 224.761 28.7646C224.577 28.7493 224.405 28.6711 224.28 28.5452C224.221 28.4832 224.176 28.4105 224.149 28.3317C224.121 28.2529 224.112 28.1697 224.121 28.0874C224.13 28.005 224.157 27.9252 224.2 27.853C224.244 27.7808 224.304 27.7176 224.375 27.6676C224.523 27.5663 224.706 27.5188 224.89 27.534C225.073 27.5493 225.244 27.6263 225.37 27.7503Z" fill="black"/>
<path d="M220.59 36.7426C220.513 36.6516 220.457 36.5469 220.425 36.4349C220.394 36.323 220.387 36.2062 220.407 36.092C220.427 35.9777 220.472 35.8684 220.539 35.7709C220.606 35.6735 220.695 35.5899 220.799 35.5255C221.014 35.3883 221.276 35.331 221.535 35.3651C221.793 35.3991 222.028 35.522 222.192 35.7092C222.269 35.8004 222.324 35.9052 222.356 36.0171C222.387 36.1289 222.393 36.2455 222.373 36.3595C222.353 36.4736 222.309 36.5827 222.242 36.6802C222.175 36.7777 222.087 36.8615 221.983 36.9264C221.769 37.0635 221.506 37.1208 221.248 37.0867C220.989 37.0527 220.754 36.9298 220.59 36.7426Z" fill="black"/>
<path d="M221.088 36.422C221.058 36.3876 221.037 36.3479 221.025 36.3056C221.013 36.2632 221.011 36.2191 221.019 36.1759C221.026 36.1327 221.043 36.0914 221.069 36.0545C221.094 36.0177 221.128 35.9862 221.167 35.9619C221.248 35.909 221.348 35.8867 221.446 35.8995C221.544 35.9124 221.633 35.9594 221.695 36.0309C221.724 36.0653 221.745 36.105 221.757 36.1473C221.769 36.1897 221.771 36.2338 221.763 36.277C221.756 36.3202 221.739 36.3615 221.713 36.3984C221.688 36.4352 221.654 36.4667 221.615 36.491C221.533 36.5418 221.434 36.5628 221.337 36.5501C221.24 36.5373 221.151 36.4917 221.088 36.422Z" fill="black"/>
<path d="M221.839 38.8765C221.709 38.8604 221.592 38.7978 221.512 38.7023C221.432 38.6068 221.396 38.4859 221.411 38.3659C221.422 38.3055 221.446 38.2478 221.481 38.196C221.516 38.1442 221.562 38.0994 221.616 38.0643C221.671 38.0291 221.732 38.0044 221.797 37.9914C221.861 37.9784 221.928 37.9775 221.993 37.9888C222.123 38.0048 222.24 38.0674 222.32 38.1629C222.4 38.2585 222.437 38.3793 222.421 38.4993C222.41 38.5597 222.387 38.6175 222.351 38.6693C222.316 38.7211 222.27 38.7658 222.216 38.801C222.162 38.8361 222.1 38.8609 222.036 38.8738C221.971 38.8868 221.904 38.8877 221.839 38.8765Z" fill="black"/>
<path d="M230.323 39.4192C230.194 39.4032 230.077 39.3413 229.998 39.2468C229.918 39.1524 229.881 39.0328 229.895 38.9136C229.906 38.8532 229.929 38.7955 229.965 38.7437C230 38.6919 230.046 38.6472 230.1 38.6121C230.154 38.577 230.216 38.5522 230.28 38.5392C230.345 38.5263 230.412 38.5254 230.477 38.5366C230.607 38.5527 230.724 38.6152 230.804 38.7107C230.884 38.8062 230.92 38.9269 230.905 39.0469C230.894 39.1068 230.869 39.1641 230.834 39.2153C230.798 39.2666 230.752 39.3108 230.698 39.3454C230.644 39.3801 230.583 39.4044 230.518 39.4171C230.454 39.4298 230.388 39.4305 230.323 39.4192Z" fill="black"/>
<path d="M223.206 31.7151C223.102 31.7044 223 31.6744 222.908 31.627C222.816 31.5796 222.736 31.5157 222.671 31.439C222.606 31.3624 222.558 31.2745 222.531 31.1807C222.503 31.0868 222.496 30.9887 222.51 30.8923C222.551 30.6971 222.672 30.5243 222.849 30.4103C223.025 30.2962 223.242 30.2498 223.455 30.2809C223.559 30.2928 223.66 30.3237 223.752 30.3719C223.843 30.42 223.923 30.4844 223.988 30.5613C224.052 30.6383 224.099 30.7262 224.126 30.8201C224.154 30.914 224.161 31.012 224.147 31.1084C224.107 31.3029 223.986 31.4753 223.81 31.5886C223.634 31.702 223.418 31.7474 223.206 31.7151Z" fill="black"/>
<path d="M223.912 34.457C223.845 34.4508 223.779 34.432 223.72 34.4018C223.661 34.3715 223.609 34.3303 223.567 34.2809C223.526 34.2314 223.496 34.1746 223.479 34.114C223.462 34.0534 223.459 33.9903 223.469 33.9285C223.479 33.8654 223.502 33.8048 223.538 33.7506C223.574 33.6963 223.622 33.6496 223.679 33.6133C223.735 33.577 223.799 33.552 223.867 33.5398C223.935 33.5276 224.004 33.5285 224.071 33.5424C224.138 33.5486 224.203 33.5673 224.262 33.5972C224.321 33.6272 224.373 33.6679 224.414 33.7169C224.455 33.7659 224.486 33.8221 224.503 33.8821C224.52 33.9422 224.524 34.0049 224.514 34.0663C224.489 34.191 224.412 34.3017 224.299 34.3746C224.187 34.4476 224.048 34.4771 223.912 34.457Z" fill="black"/>
<path d="M227.21 38.0074V37.9477C227.21 37.2743 226.62 36.7285 225.892 36.7285H225.678C224.95 36.7285 224.36 37.2743 224.36 37.9477V38.0074C224.36 38.6808 224.95 39.2266 225.678 39.2266H225.892C226.62 39.2266 227.21 38.6808 227.21 38.0074Z" fill="black"/>
<path d="M227.105 33.7617H226.956C226.448 33.7617 226.036 34.1429 226.036 34.6131V34.6545C226.036 35.1247 226.448 35.5058 226.956 35.5058H227.105C227.614 35.5058 228.026 35.1247 228.026 34.6545V34.6131C228.026 34.1429 227.614 33.7617 227.105 33.7617Z" fill="black"/>
<path d="M222.086 32.8101H221.56V33.2674H222.086V32.8101Z" fill="black"/>
<path d="M228.77 37.1689H228.244V37.6259H228.77V37.1689Z" fill="black"/>
<path d="M226.506 31.2983H225.981V31.7533H226.506V31.2983Z" fill="black"/>
<path d="M219.255 38.168H218.73V38.6247H219.255V38.168Z" fill="black"/>
</svg>
