<svg width="230" height="46" viewBox="0 0 230 46" fill="none" xmlns="http://www.w3.org/2000/svg">
<g clip-path="url(#clip0)">
<path d="M0 25.1511V23.9928L11.7386 5.6259H0.548533V1.10312H19.1987V2.26139L7.46005 20.6283H19.7472V25.1511H0Z" fill="black"/>
<path d="M24.9035 1.10312H42.8405V5.57074H29.8951V10.7554H41.1949V15.223H29.8951V20.6283H42.9502V25.0959H24.8486V1.10312H24.9035Z" fill="black"/>
<path d="M53.3724 25.1511H48.271V1.10312H57.98C64.0139 1.10312 66.7017 3.97122 66.7017 8.43885C66.7017 11.0863 65.7692 13.6787 63.0265 15.1679L68.457 25.1511H62.8071L58.1994 16.4916C57.7058 16.5468 57.2121 16.5468 56.6636 16.5468C55.6213 16.5468 54.5243 16.4916 53.2626 16.3261V25.1511H53.3724ZM53.3724 11.8585C54.4146 12.024 55.6213 12.2446 56.883 12.2446C59.2965 12.2446 61.6004 11.5276 61.6004 8.65947C61.6004 6.50839 59.9547 5.51559 57.1572 5.51559H53.3724V11.8585Z" fill="black"/>
<path d="M72.571 13.2374C72.6259 5.79136 77.7821 0.661865 85.297 0.661865C92.9216 0.661865 97.9133 5.79136 97.9682 13.2374C97.9133 20.6834 92.8668 25.8681 85.297 25.8681C77.7273 25.8681 72.6259 20.6834 72.571 13.2374ZM92.6474 13.2374C92.6474 8.38369 89.5207 5.40527 85.297 5.40527C81.0733 5.40527 78.0015 8.43884 78.0015 13.2374C78.0015 18.036 81.1282 21.0695 85.297 21.0695C89.4659 21.0695 92.6474 18.0911 92.6474 13.2374Z" fill="black"/>
<path d="M123.914 25.1511H118.593V0H128.466C135.817 0 138.559 4.08153 138.559 8.93525C138.559 15.554 133.513 17.9808 128.302 17.9808C126.985 17.9808 125.175 17.9257 123.968 17.6499V25.1511H123.914ZM123.914 13.1823C124.846 13.4029 126.547 13.4029 127.534 13.4029C130.606 13.4029 132.964 12.1894 132.964 8.76978C132.964 6.50839 131.977 4.68825 128.137 4.68825H123.914V13.1823Z" fill="black"/>
<path d="M144.703 0H150.024V25.1511H144.703V0Z" fill="black"/>
<path d="M155.838 25.1511V23.9376L168.125 4.7434H156.442V0H175.914V1.21343L163.627 20.4077H176.463V25.1511H155.838Z" fill="black"/>
<path d="M180.906 25.1511V23.9376L193.193 4.7434H181.51V0H200.983V1.21343L188.695 20.4077H201.531V25.1511H180.906Z" fill="black"/>
<path d="M203.506 25.1511H230L227.641 20.4077H205.809L203.506 25.1511Z" fill="black"/>
<path d="M226.764 18.6427L217.384 0H215.903L206.742 18.6427H226.764Z" fill="#E4A92E"/>
<path d="M217.384 3.14388C217.658 3.47481 217.603 3.91606 217.274 4.19184C216.945 4.46762 216.451 4.41246 216.177 4.08153C215.903 3.75059 215.957 3.30934 216.287 3.03357C216.616 2.81294 217.109 2.8681 217.384 3.14388Z" fill="black" stroke="black" stroke-width="0.9318" stroke-miterlimit="10"/>
<path d="M212.118 13.9544C211.734 13.5132 211.843 12.8513 212.337 12.5204C212.831 12.1894 213.489 12.2997 213.873 12.741C214.257 13.1822 214.147 13.8441 213.653 14.175C213.16 14.506 212.447 14.3957 212.118 13.9544Z" fill="black" stroke="black" stroke-width="0.6508" stroke-miterlimit="10"/>
<path d="M212.666 13.5683C212.557 13.4029 212.557 13.1271 212.776 13.0168C212.941 12.9065 213.215 12.9065 213.379 13.1271C213.489 13.2925 213.489 13.5683 213.27 13.6786C213.05 13.7889 212.776 13.7338 212.666 13.5683Z" fill="black"/>
<path d="M213.489 16.5468C213.16 16.4916 212.995 16.2158 212.995 15.9401C213.05 15.6643 213.324 15.4436 213.654 15.4988C213.983 15.554 214.147 15.8297 214.147 16.1055C214.092 16.3813 213.763 16.5468 213.489 16.5468Z" fill="black"/>
<path d="M222.814 17.1535C222.485 17.0983 222.32 16.8225 222.32 16.5467C222.375 16.271 222.649 16.0503 222.979 16.1055C223.308 16.1606 223.472 16.4364 223.472 16.7122C223.417 16.988 223.143 17.2086 222.814 17.1535Z" fill="black"/>
<path d="M214.97 7.94245C214.476 7.8873 214.147 7.44605 214.202 6.94965C214.257 6.45324 214.751 6.12231 215.244 6.23262C215.738 6.28778 216.067 6.72902 216.012 7.22543C215.957 7.66667 215.464 7.99761 214.97 7.94245Z" fill="black"/>
<path d="M215.738 11.1966C215.409 11.1415 215.189 10.8657 215.244 10.5899C215.299 10.3141 215.573 10.0935 215.902 10.1487C216.232 10.2038 216.451 10.4796 216.396 10.7554C216.396 11.0312 216.067 11.2518 215.738 11.1966Z" fill="black"/>
<path d="M216.232 15.4436V15.3885C216.232 14.5612 216.89 13.9544 217.658 13.9544H217.877C218.7 13.9544 219.303 14.6163 219.303 15.3885V15.4436C219.303 16.271 218.645 16.8777 217.877 16.8777H217.658C216.89 16.9329 216.232 16.271 216.232 15.4436Z" fill="black"/>
<path d="M219.303 12.4652H219.139C218.59 12.4652 218.097 12.024 218.097 11.4173V11.3621C218.097 10.8106 218.536 10.3141 219.139 10.3141H219.303C219.852 10.3141 220.346 10.7554 220.346 11.3621V11.4173C220.291 12.024 219.852 12.4652 219.303 12.4652Z" fill="black" stroke="black" stroke-width="1.3016" stroke-miterlimit="10"/>
<path d="M213.763 9.21103H213.16V9.76259H213.763V9.21103Z" fill="black"/>
<path d="M221.114 14.4508H220.51V15.0024H221.114V14.4508Z" fill="black"/>
<path d="M218.645 7.44604H218.042V7.9976H218.645V7.44604Z" fill="black"/>
<path d="M210.637 15.6643H210.033V16.2158H210.637V15.6643Z" fill="black"/>
<path d="M8.228 42.5803H6.36299V38.8297H1.86501V42.5803H0V33.5348H1.86501V37.2854H6.30813V33.5348H8.228V42.5803Z" fill="black"/>
<path d="M18.321 42.3045C17.5531 42.6906 16.1817 42.9112 15.1395 42.9112C11.6289 42.9112 10.093 40.7602 10.093 38.0575C10.093 34.9688 12.342 33.259 14.7556 33.259C17.8273 33.259 19.0341 35.2446 19.0341 37.6163C19.0341 37.8921 18.9793 38.5539 18.9793 38.94H12.0677C12.342 40.8153 13.9876 41.3669 15.5235 41.3669C16.3463 41.3669 17.4982 41.2014 18.3759 40.8153V42.3045H18.321ZM17.224 37.4508C17.224 35.6858 16.1817 34.8033 14.7556 34.8033C13.11 34.8033 12.1226 35.7961 12.0129 37.4508H17.224Z" fill="black"/>
<path d="M27.5913 42.5803L27.3719 41.1463C26.4394 42.3597 25.2326 42.7458 23.8613 42.7458C22.2705 42.7458 20.5701 41.8081 20.5701 39.8225C20.5701 37.5611 22.3254 36.789 24.3001 36.789C25.0132 36.789 26.1103 37.0096 26.9879 37.3405V36.5132C26.9879 35.024 25.5617 34.8033 24.4098 34.8033C23.4224 34.8033 22.4351 34.9688 21.5574 35.4101V33.7554C22.4899 33.4245 23.587 33.2038 24.6292 33.2038C26.8782 33.2038 28.8529 33.8657 28.8529 36.8441V42.5803H27.5913ZM26.9879 38.8849C26.2748 38.4436 25.3972 38.1678 24.5195 38.1678C23.3127 38.1678 22.4899 38.5539 22.4899 39.6019C22.4899 40.5947 23.0385 41.3117 24.4098 41.3117C25.3972 41.3117 26.3845 40.6499 26.9879 39.6019V38.8849Z" fill="black"/>
<path d="M39.3847 42.5803H37.5196V35.0791H33.1314V42.5803H31.2664V33.5348H39.3847V42.5803Z" fill="black"/>
<path d="M41.3044 38.1127C41.3044 35.3549 43.1146 33.2038 46.0767 33.2038C49.313 33.259 50.8489 35.4652 50.8489 38.0024C50.8489 40.7602 49.0388 42.9113 46.0767 42.9113C42.8403 42.8009 41.3044 40.5947 41.3044 38.1127ZM48.9291 38.1127C48.9291 36.4029 48.1063 34.7482 46.0767 34.7482C43.9374 34.7482 43.2243 36.458 43.2243 37.9472C43.2243 39.6571 44.0471 41.3117 46.0767 41.3117C48.216 41.3117 48.9291 39.6019 48.9291 38.1127Z" fill="black"/>
<path d="M60.6129 33.5348V42.5803H58.8027V35.0791H55.347C55.347 41.5324 54.4693 42.6906 52.33 42.6906C52.1106 42.6906 51.7267 42.6906 51.4524 42.6355L51.6169 41.0911C51.7815 41.1463 51.8912 41.1463 52.0009 41.1463C53.4271 41.1463 53.7014 39.6019 53.8111 33.5348H60.6129Z" fill="black"/>
<path d="M63.0264 33.5348H64.8914V39.3261L70.7058 33.5348H71.3641V42.5803H69.4991V36.789L63.6846 42.5803H63.0264V33.5348Z" fill="black"/>
<path d="M80.7442 35.0791H77.8369V42.5803H75.9719V35.0791H73.0647V33.5348H80.7442V35.0791Z" fill="black"/>
<path d="M88.314 42.5803L88.0946 41.1463C87.162 42.3597 85.9553 42.7458 84.5839 42.7458C82.9932 42.7458 81.2927 41.8081 81.2927 39.8225C81.2927 37.5611 83.048 36.789 85.0228 36.789C85.7359 36.789 86.8329 37.0096 87.7106 37.3405V36.5132C87.7106 35.024 86.2844 34.8033 85.1325 34.8033C84.1451 34.8033 83.1577 34.9688 82.2801 35.4101V33.7554C83.2126 33.4245 84.3097 33.2038 85.3519 33.2038C87.6009 33.2038 89.5756 33.8657 89.5756 36.8441V42.5803H88.314ZM87.7106 38.8849C86.9975 38.4436 86.1198 38.1678 85.2422 38.1678C84.0354 38.1678 83.2126 38.5539 83.2126 39.6019C83.2126 40.5947 83.7611 41.3117 85.1325 41.3117C86.1198 41.3117 87.1072 40.6499 87.7106 39.6019V38.8849Z" fill="black"/>
<path d="M100.162 42.5803H98.2971V38.8297H93.854V42.5803H91.989V33.5348H93.854V37.2854H98.2971V33.5348H100.162V42.5803Z" fill="black"/>
<path d="M109.323 35.1894C108.719 34.9688 107.896 34.8033 107.183 34.8033C105.154 34.8033 104.057 35.9065 104.057 38.0024C104.057 40.1535 105.318 41.2566 107.129 41.2566C107.951 41.2566 108.829 41.0911 109.432 40.8153V42.4149C108.61 42.8009 107.567 42.9113 106.854 42.9113C104.166 42.9113 102.082 41.1463 102.082 38.1127C102.082 35.1343 103.947 33.2038 106.964 33.2038C107.622 33.2038 108.61 33.3141 109.323 33.5899V35.1894Z" fill="black"/>
<path d="M111.243 33.5348H113.108V37.2302H114.534L117.222 33.5348H119.471L116.125 37.8921L119.8 42.5803H117.441L114.589 38.8297H113.053V42.5803H111.188V33.5348H111.243Z" fill="black"/>
<path d="M127.205 42.5803L126.985 41.1463C126.053 42.3597 124.846 42.7458 123.475 42.7458C121.884 42.7458 120.184 41.8081 120.184 39.8225C120.184 37.5611 121.939 36.789 123.914 36.789C124.627 36.789 125.724 37.0096 126.601 37.3405V36.5132C126.601 35.024 125.175 34.8033 124.023 34.8033C123.036 34.8033 122.049 34.9688 121.171 35.4101V33.7554C122.103 33.4245 123.201 33.2038 124.243 33.2038C126.492 33.2038 128.466 33.8657 128.466 36.8441V42.5803H127.205ZM126.601 38.8849C125.888 38.4436 125.011 38.1678 124.133 38.1678C122.926 38.1678 122.103 38.5539 122.103 39.6019C122.103 40.5947 122.652 41.3117 124.023 41.3117C125.011 41.3117 125.998 40.6499 126.601 39.6019V38.8849Z" fill="black"/>
<path d="M134.171 39.9329L132.745 42.5252H130.551L132.361 39.5468C131.264 39.1055 130.496 38.223 130.386 36.6787C130.386 34.7482 131.593 33.4796 133.842 33.4796H138.505V42.5252H136.585V39.7122C135.817 39.8777 135.104 39.9329 134.446 39.9329H134.171ZM136.585 34.9137H134.391C133.129 34.9137 132.306 35.5755 132.306 36.7338C132.306 38.0576 133.458 38.6091 134.939 38.6091C135.378 38.6091 135.927 38.554 136.585 38.4436V34.9137Z" fill="black"/>
<path d="M154.247 42.5803H152.382V35.0791H147.994V42.5803H146.129V33.5348H154.247V42.5803Z" fill="black"/>
<path d="M156.661 33.5348H158.526V39.3261L164.341 33.5348H164.999V42.5803H163.134V36.789L157.319 42.5803H156.661V33.5348Z" fill="black"/>
<path d="M167.467 33.5348H169.332V41.036H173.72V33.5348H175.586V41.036H176.737V44.6762H175.092V42.5252H167.412V33.5348H167.467Z" fill="black"/>
<path d="M178.712 33.5348H180.577V41.036H184.965V33.5348H186.83V41.036H187.982V44.6762H186.337V42.5252H178.657V33.5348H178.712Z" fill="black"/>
<path d="M197.746 42.3045C196.978 42.6906 195.607 42.9112 194.565 42.9112C191.054 42.9112 189.518 40.7602 189.518 38.0575C189.518 34.9688 191.767 33.259 194.181 33.259C197.253 33.259 198.459 35.2446 198.459 37.6163C198.459 37.8921 198.405 38.5539 198.405 38.94H191.438C191.712 40.8153 193.358 41.3669 194.894 41.3669C195.717 41.3669 196.869 41.2014 197.746 40.8153V42.3045ZM196.594 37.4508C196.594 35.6858 195.552 34.8033 194.126 34.8033C192.48 34.8033 191.493 35.7961 191.383 37.4508H196.594Z" fill="black"/>
<path d="M202.354 46H200.489V33.5348H201.97V35.1343C203.012 33.6451 204.493 33.2038 205.755 33.2038C208.498 33.2038 209.814 35.2446 209.814 37.8369C209.814 40.5396 208.278 42.8561 205.481 42.8561C204.548 42.8561 203.396 42.6906 202.354 41.8081V46ZM207.894 37.8921C207.894 36.1271 207.071 34.9137 205.152 34.9137C204.109 34.9137 203.012 35.4652 202.354 36.5132V40.2086C203.232 40.9256 204.109 41.2014 205.152 41.2014C207.126 41.1463 207.894 39.6571 207.894 37.8921Z" fill="black"/>
<path d="M211.624 33.5348H213.489V39.3261L219.304 33.5348H219.962V42.5803H218.097V36.789L212.282 42.5803H211.624V33.5348Z" fill="black"/>
<path d="M225.721 39.9329L224.295 42.5252H222.101L223.911 39.5468C222.814 39.1055 222.046 38.223 221.937 36.6787C221.937 34.7482 223.143 33.4796 225.392 33.4796H230.055V42.5252H228.19V39.7122C227.422 39.8777 226.709 39.9329 226.051 39.9329H225.721ZM228.135 34.9137H225.941C224.679 34.9137 223.856 35.5755 223.856 36.7338C223.856 38.0576 225.008 38.6091 226.489 38.6091C226.928 38.6091 227.477 38.554 228.135 38.4436V34.9137Z" fill="black"/>
</g>
<defs>
<clipPath id="clip0">
<rect width="230" height="46" fill="white"/>
</clipPath>
</defs>
</svg>
