<svg width="41" height="40" viewBox="0 0 41 40" fill="none" xmlns="http://www.w3.org/2000/svg">
<path d="M20.874 0C16.9184 0 13.0516 1.17298 9.76263 3.37061C6.47364 5.56823 3.91019 8.69181 2.39644 12.3463C0.882689 16.0008 0.486623 20.0222 1.25833 23.9018C2.03003 27.7814 3.93485 31.3451 6.73189 34.1421C9.52894 36.9392 13.0926 38.844 16.9722 39.6157C20.8518 40.3874 24.8732 39.9913 28.5277 38.4776C32.1822 36.9638 35.3058 34.4004 37.5034 31.1114C39.701 27.8224 40.874 23.9556 40.874 20C40.874 14.6957 38.7669 9.60859 35.0162 5.85786C31.2654 2.10714 26.1784 0 20.874 0V0Z" fill="#39B54A"/>
<path d="M29.5232 27.5199L28.2124 28.8307C27.929 29.0229 27.6081 29.1529 27.2709 29.2122C25.2127 29.2312 23.1714 28.8392 21.2666 28.0592C19.3618 27.2791 17.6318 26.1268 16.1781 24.6696C14.7244 23.2124 13.5761 21.4798 12.8006 19.5731C12.025 17.6665 11.6378 15.6243 11.6617 13.5661C11.7277 13.2437 11.8586 12.938 12.0463 12.6676L13.3571 11.3538C13.6304 11.1084 13.961 10.9356 14.3185 10.8512C14.676 10.7668 15.049 10.7735 15.4032 10.8707L15.6801 10.963C16.0304 11.1023 16.3462 11.3162 16.6055 11.5899C16.8648 11.8635 17.0614 12.1903 17.1817 12.5476L17.8401 14.9692C17.919 15.3326 17.911 15.7095 17.8169 16.0693C17.7228 16.4291 17.5452 16.7616 17.2986 17.0399L16.4217 17.9169C16.8461 19.4829 17.6729 20.9107 18.8199 22.0582C19.9669 23.2058 21.3943 24.0333 22.9601 24.4584L23.834 23.5846C24.1125 23.3371 24.4454 23.1588 24.8058 23.0642C25.1661 22.9696 25.5437 22.9613 25.9078 23.0399L28.3294 23.6922C28.686 23.812 29.0123 24.0078 29.2859 24.2659C29.5595 24.5241 29.7738 24.8386 29.914 25.1876L30.0063 25.4676C30.1027 25.8214 30.109 26.1937 30.0246 26.5506C29.9402 26.9075 29.7678 27.2375 29.5232 27.5107V27.5199Z" fill="white"/>
</svg>
