<svg width="78" height="75" viewBox="0 0 78 75" fill="none" xmlns="http://www.w3.org/2000/svg">
<g clip-path="url(#clip0)">
<path d="M39 5.50084C58.0125 5.50084 73.125 19.7997 73.125 37.7886C73.125 55.7775 58.0125 70.0764 39 70.0764C19.9875 70.0764 4.875 55.7775 4.875 37.7886C4.875 19.7997 19.9875 5.50084 39 5.50084ZM39 0.888306C17.55 0.888306 0 17.4934 0 37.7886C0 58.0838 17.55 74.6889 39 74.6889C60.45 74.6889 78 58.0838 78 37.7886C78 17.4934 60.45 0.888306 39 0.888306Z" fill="white"/>
<path d="M29.25 19.3384V56.2387L58.5 37.7886L29.25 19.3384Z" fill="white"/>
</g>
<defs>
<clipPath id="clip0">
<rect width="78" height="73.8006" fill="white" transform="translate(0 0.888306)"/>
</clipPath>
</defs>
</svg>
