<svg width="30" height="30" viewBox="0 0 30 30" fill="none" xmlns="http://www.w3.org/2000/svg">
<circle cx="15" cy="15" r="15" fill="url(#paint0_linear)"/>
<path d="M10.9589 21.2588L11.2329 21.4206C12.3842 22.1022 13.6974 22.462 15.0352 22.4625C16.6915 22.4622 18.3008 21.9116 19.6101 20.8971C20.9194 19.8826 21.8545 18.4619 22.2683 16.8581C22.6822 15.2543 22.5513 13.5584 21.8964 12.0371C21.2415 10.5158 20.0995 9.25522 18.6501 8.45357C17.2007 7.65192 15.526 7.35465 13.8893 7.60847C12.2525 7.86228 10.7465 8.65281 9.60797 9.85578C8.46943 11.0587 7.76293 12.6059 7.5995 14.2542C7.43608 15.9024 7.82501 17.5582 8.70515 18.9614L8.88233 19.2437L8.12754 22.0006L10.9589 21.2588ZM5.97302 24.1362L7.24872 19.4787C6.26093 17.7645 5.86619 15.7724 6.12569 13.811C6.38518 11.8497 7.28441 10.0287 8.684 8.63034C10.0836 7.23199 11.9054 6.33438 13.8669 6.07663C15.8285 5.81888 17.8204 6.2154 19.5337 7.20471C21.247 8.19403 22.5861 9.72089 23.3435 11.5486C24.1009 13.3764 24.2342 15.4029 23.7228 17.3141C23.2113 19.2253 22.0838 20.9144 20.5148 22.1196C18.9458 23.3249 17.0231 23.9789 15.0447 23.9803C13.541 23.9831 12.0607 23.6087 10.7392 22.8912L5.97302 24.1362Z" fill="white"/>
<path d="M6.04862 14.9878C6.04727 16.5635 6.46121 18.1117 7.24872 19.4764L5.97302 24.1374L10.738 22.8913C12.0562 23.609 13.5331 23.985 15.034 23.9851C16.812 23.986 18.5504 23.4597 20.0292 22.4727C21.5081 21.4858 22.6612 20.0824 23.3425 18.4402C24.0239 16.798 24.203 14.9906 23.8573 13.2465C23.5115 11.5025 22.6563 9.90014 21.3999 8.64209C20.1435 7.38405 18.5423 6.52679 16.7987 6.17872C15.0552 5.83065 13.2475 6.0074 11.6044 6.68661C9.96125 7.36583 8.55642 8.51702 7.56751 9.99461C6.57859 11.4722 6.05002 13.2098 6.04862 14.9878ZM8.88351 19.2461L8.70633 18.9638C7.82559 17.5605 7.43616 15.9044 7.59926 14.2557C7.76236 12.6071 8.46873 11.0594 9.60734 9.85591C10.7459 8.65246 12.2522 7.86153 13.8893 7.60746C15.5264 7.35339 17.2016 7.65059 18.6514 8.45233C20.1012 9.25408 21.2434 10.5149 21.8985 12.0366C22.5537 13.5583 22.6845 15.2545 22.2705 16.8587C21.8565 18.4628 20.9211 19.8839 19.6114 20.8985C18.3017 21.9131 16.6919 22.4637 15.0352 22.4637C13.697 22.4642 12.3833 22.1048 11.2317 21.423L10.9589 21.2612L8.13108 22.003L8.88351 19.2461Z" fill="url(#paint1_linear)"/>
<path d="M12.7912 11.2304C12.6234 10.8571 12.4462 10.8488 12.2868 10.8429C12.1557 10.8429 12.0057 10.8429 11.8556 10.8429C11.7418 10.846 11.6299 10.8726 11.5269 10.921C11.4238 10.9694 11.3319 11.0385 11.2568 11.1241C11.0029 11.3647 10.8019 11.6556 10.6665 11.9781C10.5311 12.3006 10.4642 12.6477 10.4701 12.9974C10.4701 14.1031 11.2757 15.1709 11.3879 15.3209C11.5001 15.4709 12.9423 17.8049 15.2244 18.705C17.1226 19.4539 17.5077 19.3051 17.9199 19.2673C18.3322 19.2295 19.2488 18.7239 19.4366 18.2042C19.6244 17.6845 19.6232 17.2297 19.5677 17.1411C19.5122 17.0525 19.361 16.9852 19.1366 16.8671C18.9122 16.7489 17.8077 16.2115 17.601 16.1359C17.3943 16.0603 17.2467 16.0178 17.0955 16.254C16.9443 16.4903 16.5155 16.984 16.3867 17.134C16.258 17.284 16.1245 17.3029 15.9001 17.1907C15.238 16.9264 14.6269 16.5491 14.094 16.0757C13.6019 15.6214 13.1803 15.0963 12.8431 14.5177C12.712 14.2932 12.829 14.1716 12.9412 14.0593C13.0534 13.9471 13.1656 13.7971 13.2778 13.666C13.3703 13.5527 13.4459 13.4266 13.5022 13.2916C13.5322 13.2297 13.5463 13.1613 13.5432 13.0926C13.5401 13.024 13.5199 12.9571 13.4845 12.8982C13.4278 12.786 12.9908 11.6745 12.7912 11.2304Z" fill="white"/>
<defs>
<linearGradient id="paint0_linear" x1="15.1308" y1="29.5478" x2="15.1308" y2="-0.453911" gradientUnits="userSpaceOnUse">
<stop stop-color="#20B038"/>
<stop offset="1" stop-color="#60D66A"/>
</linearGradient>
<linearGradient id="paint1_linear" x1="15.2007" y1="23.4282" x2="15.2007" y2="5.29167" gradientUnits="userSpaceOnUse">
<stop stop-color="#F9F9F9"/>
<stop offset="1" stop-color="white"/>
</linearGradient>
</defs>
</svg>
