<svg width="254" height="29" viewBox="0 0 254 29" fill="none" xmlns="http://www.w3.org/2000/svg">
<path d="M0 27.571V26.2779L12.9292 6.1696H0.604167V1.20898H21.1459V2.50201L8.21667 22.6043H21.75V27.571H0Z" fill="white"/>
<path d="M27.405 1.20898H47.1734V6.12731H32.9513V11.8009H45.4213V16.7253H32.9513V22.6466H47.3426V27.571H27.405V1.20898Z" fill="white"/>
<path d="M58.7674 27.571H53.1667V1.20898H63.8847C70.5305 1.20898 73.5211 4.37508 73.5211 9.25715C73.5211 12.1755 72.482 15.0153 69.4793 16.6407L75.5209 27.571H69.2799L64.1928 18.0606C63.649 18.1029 63.1053 18.1029 62.5253 18.1029C61.2687 18.0945 60.0137 18.0097 58.7674 17.8491V27.571ZM58.7674 13.0154C60.0315 13.2668 61.3153 13.4063 62.6038 13.4323C65.2743 13.4323 67.8178 12.6347 67.8178 9.51092C67.8178 7.13031 66.0053 6.04876 62.9422 6.04876H58.7674V13.0154Z" fill="white"/>
<path d="M79.9131 14.5023C79.9977 6.32843 85.6285 0.740234 93.9298 0.740234C102.231 0.740234 107.826 6.32843 107.904 14.5023C107.82 22.6339 102.316 28.3066 93.9298 28.3066C85.5439 28.3066 79.9977 22.646 79.9131 14.5023ZM102.02 14.5023C102.02 9.20408 98.5577 5.91158 93.9298 5.91158C89.3018 5.91158 85.8823 9.21617 85.8823 14.5023C85.8823 19.7884 89.3018 23.0507 93.9298 23.0507C98.5577 23.0507 102.02 19.8126 102.02 14.5023Z" fill="white"/>
<path d="M136.475 27.5714H130.585V0.000488281H141.46C149.574 0.000488281 152.582 4.45365 152.582 9.77087C152.582 17.0216 147 19.6802 141.285 19.6802C139.677 19.7031 138.07 19.5716 136.487 19.2875L136.475 27.5714ZM136.475 14.4416C137.789 14.6363 139.117 14.7232 140.445 14.7014C143.846 14.7014 146.42 13.3539 146.42 9.64398C146.42 7.15456 145.332 5.14852 141.097 5.14852H136.475V14.4416Z" fill="white"/>
<path d="M159.373 0.000488281H165.264V27.5714H159.373V0.000488281Z" fill="white"/>
<path d="M171.632 27.5714V26.224L185.153 5.19081H172.284V0.000488281H193.75V1.35396L180.223 22.357H194.361V27.5473L171.632 27.5714Z" fill="white"/>
<path d="M199.242 27.5714V26.224L212.763 5.19081H199.895V0.000488281H221.361V1.35396L207.833 22.357H221.971V27.5473L199.242 27.5714Z" fill="white"/>
<path d="M224.152 27.5698H253.333L250.705 22.3784H226.714L224.152 27.5698Z" fill="white"/>
<path d="M249.757 20.4087L239.419 0.000488281H237.806L227.729 20.4087H249.757Z" fill="white"/>
<path d="M239.407 3.47534C239.48 3.5566 239.535 3.65216 239.569 3.75593C239.603 3.8597 239.615 3.9694 239.604 4.07804C239.593 4.18668 239.56 4.29188 239.506 4.38693C239.453 4.48198 239.38 4.56479 239.292 4.6301C239.113 4.76464 238.891 4.82797 238.667 4.80787C238.444 4.78777 238.236 4.68567 238.084 4.52127C238.011 4.44001 237.956 4.34445 237.922 4.24068C237.888 4.13692 237.876 4.02722 237.887 3.91857C237.898 3.80993 237.931 3.70474 237.985 3.60969C238.039 3.51464 238.111 3.43182 238.199 3.36652C238.377 3.22794 238.6 3.16209 238.825 3.18229C239.049 3.2025 239.257 3.30725 239.407 3.47534Z" fill="white"/>
<path d="M233.601 15.2807C233.508 15.1603 233.441 15.0221 233.404 14.8748C233.367 14.7274 233.36 14.574 233.384 14.4239C233.409 14.2739 233.463 14.1304 233.545 14.0024C233.627 13.8744 233.735 13.7646 233.861 13.6798C234.123 13.5014 234.442 13.4279 234.755 13.4738C235.068 13.5197 235.353 13.6816 235.553 13.9274C235.645 14.0478 235.713 14.186 235.75 14.3333C235.787 14.4807 235.794 14.6341 235.769 14.7842C235.745 14.9342 235.69 15.0777 235.608 15.2057C235.526 15.3337 235.419 15.4435 235.293 15.5284C235.031 15.7053 234.712 15.778 234.399 15.7322C234.086 15.6864 233.801 15.5254 233.601 15.2807Z" fill="white"/>
<path d="M234.211 14.8582C234.176 14.8129 234.15 14.7608 234.136 14.7051C234.121 14.6495 234.119 14.5914 234.128 14.5346C234.137 14.4778 234.158 14.4235 234.189 14.3751C234.22 14.3266 234.26 14.2852 234.308 14.2533C234.407 14.1858 234.529 14.1583 234.647 14.1763C234.766 14.1942 234.873 14.2562 234.949 14.3501C234.983 14.396 235.007 14.4485 235.021 14.5043C235.034 14.5601 235.036 14.618 235.027 14.6746C235.017 14.7311 234.996 14.7852 234.965 14.8334C234.934 14.8816 234.893 14.923 234.846 14.955C234.747 15.0221 234.627 15.0494 234.51 15.0314C234.392 15.0134 234.285 14.9516 234.211 14.8582Z" fill="white"/>
<path d="M235.124 18.1235C234.966 18.1024 234.824 18.0203 234.726 17.8948C234.629 17.7694 234.585 17.6108 234.604 17.4532C234.618 17.3745 234.647 17.2992 234.69 17.2319C234.734 17.1646 234.79 17.1065 234.855 17.061C234.921 17.0155 234.995 16.9835 235.073 16.9668C235.152 16.9502 235.232 16.9492 235.311 16.964C235.468 16.9851 235.611 17.0673 235.708 17.1927C235.806 17.3182 235.849 17.4768 235.831 17.6344C235.817 17.7131 235.787 17.7883 235.744 17.8556C235.701 17.923 235.645 17.9811 235.579 18.0266C235.514 18.0721 235.44 18.1041 235.361 18.1207C235.283 18.1374 235.202 18.1383 235.124 18.1235Z" fill="white"/>
<path d="M245.425 18.8021C245.267 18.781 245.125 18.699 245.027 18.5736C244.93 18.4483 244.886 18.2898 244.905 18.1324C244.919 18.0537 244.948 17.9786 244.991 17.9113C245.035 17.8441 245.091 17.786 245.156 17.7406C245.222 17.6951 245.296 17.6631 245.374 17.6465C245.453 17.6299 245.533 17.6289 245.612 17.6437C245.768 17.6648 245.91 17.746 246.007 17.87C246.104 17.994 246.149 18.1509 246.132 18.3074C246.119 18.3866 246.09 18.4624 246.047 18.5303C246.004 18.5983 245.948 18.657 245.882 18.7031C245.817 18.7492 245.742 18.7816 245.664 18.7986C245.585 18.8157 245.504 18.8168 245.425 18.8021Z" fill="white"/>
<path d="M236.779 8.68096C236.652 8.6653 236.53 8.62475 236.418 8.56164C236.307 8.49853 236.209 8.4141 236.131 8.31318C236.052 8.21227 235.994 8.09686 235.96 7.97356C235.927 7.85027 235.917 7.72152 235.933 7.59469C235.983 7.33881 236.131 7.11247 236.346 6.96373C236.56 6.81499 236.824 6.75557 237.081 6.79808C237.209 6.81297 237.332 6.85302 237.444 6.9159C237.555 6.97877 237.653 7.06321 237.732 7.1643C237.811 7.2654 237.869 7.38112 237.902 7.50474C237.936 7.62836 237.944 7.75741 237.927 7.88436C237.876 8.13949 237.728 8.36489 237.514 8.51338C237.3 8.66186 237.037 8.72191 236.779 8.68096Z" fill="white"/>
<path d="M237.643 12.2779C237.562 12.2698 237.483 12.2452 237.412 12.2057C237.34 12.1662 237.277 12.1126 237.227 12.0481C237.177 11.9837 237.14 11.9096 237.119 11.8305C237.098 11.7515 237.094 11.6689 237.106 11.588C237.136 11.4238 237.23 11.2781 237.367 11.182C237.503 11.0859 237.672 11.047 237.837 11.0736C237.918 11.0816 237.998 11.1064 238.07 11.1463C238.142 11.1861 238.205 11.2403 238.255 11.3055C238.305 11.3706 238.342 11.4454 238.362 11.5252C238.383 11.605 238.387 11.6882 238.374 11.7696C238.363 11.8526 238.334 11.9323 238.291 12.0038C238.247 12.0752 238.189 12.1368 238.12 12.1846C238.051 12.2324 237.974 12.2654 237.891 12.2814C237.809 12.2975 237.725 12.2963 237.643 12.2779Z" fill="white"/>
<path d="M241.649 16.9414V16.8629C241.649 15.9789 240.932 15.2622 240.048 15.2622H239.788C238.904 15.2622 238.187 15.9789 238.187 16.8629V16.9414C238.187 17.8255 238.904 18.5422 239.788 18.5422H240.048C240.932 18.5422 241.649 17.8255 241.649 16.9414Z" fill="white"/>
<path d="M241.522 11.3701H241.341C240.723 11.3701 240.223 11.8707 240.223 12.4881V12.5425C240.223 13.1599 240.723 13.6605 241.341 13.6605H241.522C242.139 13.6605 242.64 13.1599 242.64 12.5425V12.4881C242.64 11.8707 242.139 11.3701 241.522 11.3701Z" fill="white"/>
<path d="M235.42 10.1206H234.779V10.7254H235.42V10.1206Z" fill="white"/>
<path d="M243.546 15.8481H242.905V16.453H243.546V15.8481Z" fill="white"/>
<path d="M240.797 8.13379H240.156V8.7373H240.797V8.13379Z" fill="white"/>
<path d="M231.982 17.1597H231.342V17.7645H231.982V17.1597Z" fill="white"/>
</svg>
